<svg width="20" height="20" viewBox="0 0 20 20" fill="none" xmlns="http://www.w3.org/2000/svg">
<path d="M7.33452 7.81601C7.3475 8.50944 7.62809 9.16263 8.12463 9.65521C8.62115 10.1478 9.27655 10.4232 9.97012 10.4308C10.2934 10.4344 10.6116 10.3804 10.913 10.2704C11.0194 10.2316 11.0742 10.1139 11.0354 10.0075C10.9967 9.90113 10.879 9.84625 10.7726 9.88508C10.5176 9.97802 10.2499 10.024 9.9746 10.0206C8.76754 10.0074 7.76716 9.01498 7.74452 7.80668C7.72814 7.1927 7.97742 6.5889 8.42835 6.15008C8.87945 5.71114 9.49009 5.47868 10.1051 5.51162C11.2808 5.56489 12.2251 6.52891 12.2549 7.70631C12.2619 7.98077 12.2202 8.24985 12.1312 8.506C12.0721 8.6761 11.9098 8.79036 11.7274 8.79036C11.7274 8.79036 11.7274 8.79036 11.7274 8.79036C11.491 8.79036 11.2987 8.59806 11.2987 8.36166V6.67131C11.2987 6.55803 11.2069 6.46624 11.0936 6.46624C10.9803 6.46624 10.8886 6.55803 10.8886 6.67131V6.81912C10.656 6.60054 10.3435 6.46624 9.99992 6.46624C9.28379 6.46624 8.70115 7.04888 8.70115 7.76501C8.70115 8.48114 9.28379 9.06379 9.99992 9.06379C10.3708 9.06379 10.7055 8.90728 10.9424 8.65718C11.0622 8.97432 11.3688 9.20053 11.7273 9.20053H11.7274C12.0842 9.20053 12.4022 8.97553 12.5186 8.64069C12.624 8.33776 12.6731 8.0199 12.665 7.69589C12.6297 6.30429 11.5134 5.16489 10.1255 5.102C9.39822 5.06269 8.67526 5.33756 8.14238 5.85614C7.60958 6.37456 7.31516 7.08951 7.33452 7.81601ZM9.99995 8.65365C9.50994 8.65365 9.11132 8.25502 9.11132 7.76501C9.11132 7.27501 9.50994 6.87638 9.99995 6.87638C10.49 6.87638 10.8886 7.27501 10.8886 7.76501C10.8886 8.25502 10.49 8.65365 9.99995 8.65365Z" fill="#FF9737"/>
<path d="M16.9206 8.4445L11.171 3.9519C10.506 3.43231 9.5749 3.42954 8.90681 3.94528L3.08028 8.44341C3.03029 8.48166 2.99992 8.54315 3.00002 8.6061V10.4107C3.00002 10.524 3.09181 10.6158 3.20509 10.6158C3.31837 10.6158 3.41016 10.524 3.41016 10.4107V8.95553L8.56703 11.8362L3.41016 15.8173V11.3677C3.41016 11.2544 3.31837 11.1626 3.20509 11.1626C3.09181 11.1626 3.00002 11.2544 3.00002 11.3677V16.2347C2.99822 16.3448 3.09493 16.4417 3.20509 16.4397H16.7944C16.9038 16.4412 17.0017 16.3447 16.9994 16.2347V8.63032C17.0043 8.55994 16.9775 8.48798 16.9206 8.4445ZM3.8063 16.0296L9.15746 11.8985C9.67708 11.4974 10.4012 11.4995 10.9185 11.9037L11.0173 11.9808C11.0173 11.9809 13.5881 13.9896 13.5883 13.9897C13.6776 14.0595 13.8064 14.0437 13.8761 13.9544C13.9459 13.8651 13.9301 13.7363 13.8408 13.6666L11.5104 11.8457L12.7713 11.1353C12.8699 11.0798 12.9049 10.9547 12.8493 10.856C12.7937 10.7573 12.6687 10.7225 12.57 10.778L11.1601 11.5723C10.5003 11.0645 9.5839 11.0611 8.92046 11.5638L3.57635 8.57853L9.15749 4.26989C9.67711 3.86878 10.4013 3.87088 10.9185 4.27506L16.4461 8.5942L13.38 10.3216C13.2813 10.3772 13.2464 10.5022 13.3019 10.601C13.3579 10.7006 13.4844 10.734 13.5813 10.679L16.5893 8.9843V15.8141L14.5734 14.2389C14.4841 14.1692 14.3553 14.185 14.2855 14.2743C14.2158 14.3635 14.2316 14.4924 14.3208 14.5621L16.1989 16.0296H3.8063V16.0296Z" fill="#FF9737"/>
</svg>
