<svg width="30" height="30" viewBox="0 0 30 30" fill="none" xmlns="http://www.w3.org/2000/svg">
<path d="M17.9351 22.1777H12.065C9.51828 22.1777 7.44635 24.2497 7.44635 26.7964V29.5605C7.44635 29.8032 7.64311 30 7.8858 30H22.1143C22.357 30 22.5538 29.8032 22.5538 29.5605V26.7964C22.5538 24.2497 20.4818 22.1777 17.9351 22.1777Z" fill="#F0EEEE"/>
<path d="M17.9351 22.1777H16.4849C19.0316 22.1777 21.1035 24.2497 21.1035 26.7964V29.5605C21.1035 29.8032 20.9068 30 20.6641 30H22.1143C22.357 30 22.5537 29.8032 22.5537 29.5605V26.7964C22.5537 24.2497 20.4818 22.1777 17.9351 22.1777Z" fill="#D9D4D4"/>
<path d="M11.0547 28.2423C10.8121 28.2423 10.6153 28.0455 10.6153 27.8028V24.3738C10.6153 24.1311 10.8121 23.9343 11.0547 23.9343H14.2574C14.5001 23.9343 14.6968 24.1311 14.6968 24.3738C14.6968 24.6165 14.5001 24.8132 14.2574 24.8132H11.4942V27.8028C11.4942 28.0455 11.2974 28.2423 11.0547 28.2423Z" fill="#484655"/>
<path d="M12.605 16.5574V21.7158C12.605 23.0385 13.6773 24.1109 15 24.1109C16.3227 24.1109 17.395 23.0386 17.395 21.7158V16.5574H12.605Z" fill="#FA9E3E"/>
<path d="M22.9465 12.8403H7.05353V16.915H22.9465V12.8403Z" fill="#484655"/>
<path d="M7.59477 14.793H10.4036V18.0137H7.59477C6.70537 18.0137 5.98438 17.2927 5.98438 16.4033C5.98438 15.5139 6.70537 14.793 7.59477 14.793Z" fill="#FA9E3E"/>
<path d="M22.4053 14.793H19.5965V18.0137H22.4053C23.2947 18.0137 24.0157 17.2927 24.0157 16.4033C24.0157 15.5139 23.2947 14.793 22.4053 14.793Z" fill="#FA9E3E"/>
<path d="M15 21.552C11.4772 21.552 8.6214 18.6962 8.6214 15.1734V8.72192H21.3787V15.1734C21.3787 18.6962 18.5229 21.552 15 21.552Z" fill="#FFB56B"/>
<path d="M20.051 8.72192V15.8371C20.051 18.8854 17.6644 21.376 14.6578 21.5428C14.7712 21.5488 14.8852 21.552 15 21.552C18.5228 21.552 21.3786 18.6962 21.3786 15.1733V8.72192H20.051Z" fill="#EF9245"/>
<path d="M18.0907 15.375C17.848 15.375 17.6512 15.1782 17.6512 14.9356V14.8184C17.6512 14.5757 17.848 14.3789 18.0907 14.3789C18.3334 14.3789 18.5302 14.5757 18.5302 14.8184V14.9356C18.5302 15.1782 18.3335 15.375 18.0907 15.375Z" fill="#19303F"/>
<path d="M11.9094 15.375C11.6667 15.375 11.4699 15.1782 11.4699 14.9356V14.8184C11.4699 14.5757 11.6667 14.3789 11.9094 14.3789C12.1521 14.3789 12.3488 14.5757 12.3488 14.8184V14.9356C12.3488 15.1782 12.1521 15.375 11.9094 15.375Z" fill="#19303F"/>
<path d="M25.2441 4.79648C25.2441 2.63391 23.1534 0.874453 20.5836 0.874453C19.7439 0.874453 18.9343 1.06049 18.2196 1.41521C17.4116 0.523008 16.2347 0 15 0C13.7653 0 12.5883 0.523008 11.7803 1.41527C11.0656 1.06049 10.256 0.874512 9.41634 0.874512C6.84654 0.874512 4.7558 2.63391 4.7558 4.79654C4.7558 6.14197 5.5723 7.38545 6.90654 8.10252L6.61515 12.8133C6.60051 13.0502 6.77664 13.256 7.01301 13.278C9.66291 13.525 12.3314 13.6485 15 13.6485C17.6685 13.6485 20.337 13.525 22.9869 13.278C23.2233 13.256 23.3994 13.0502 23.3847 12.8133L23.0934 8.10252C24.4276 7.38539 25.2441 6.14191 25.2441 4.79648Z" fill="#F0EEEE"/>
<path d="M25.2441 4.79654C25.2441 2.63396 23.1534 0.874512 20.5836 0.874512C20.5068 0.874512 20.4303 0.876621 20.354 0.879727C22.3078 1.39084 23.7305 2.92652 23.7305 4.7366C23.7305 6.12182 22.8898 7.40197 21.5162 8.14025L21.8162 12.9902C21.8264 13.1556 21.7461 13.3062 21.6175 13.3931C22.0744 13.3579 22.5311 13.3204 22.987 13.2779C23.2233 13.2558 23.3995 13.0501 23.3848 12.8132L23.0934 8.1024C24.4276 7.38545 25.2441 6.14197 25.2441 4.79654Z" fill="#D9D4D4"/>
<path d="M14.7 22.7409L12.6015 21.5852C12.1601 21.3421 11.6141 21.4076 11.2429 21.7485L10.3877 22.5336C10.2792 22.6332 10.2278 22.7804 10.2508 22.9258C10.2737 23.0712 10.3679 23.1954 10.5018 23.2568L14.0743 24.8947C14.1325 24.9214 14.195 24.9347 14.2575 24.9347C14.3282 24.9347 14.399 24.9176 14.4631 24.8836C14.5839 24.8196 14.6681 24.703 14.6908 24.5682L14.9214 23.1987C14.9523 23.0146 14.8635 22.831 14.7 22.7409Z" fill="#E11E1D"/>
<path d="M19.6124 22.5337L18.7572 21.7485C18.386 21.4077 17.84 21.342 17.3986 21.5852L15.3001 22.7409C15.1365 22.831 15.0478 23.0146 15.0787 23.1988L15.3093 24.5682C15.332 24.703 15.4162 24.8196 15.537 24.8836C15.6012 24.9177 15.6719 24.9347 15.7427 24.9347C15.8051 24.9347 15.8676 24.9215 15.9258 24.8948L19.4984 23.2568C19.6322 23.1955 19.7264 23.0712 19.7493 22.9258C19.7723 22.7805 19.7208 22.6332 19.6124 22.5337Z" fill="#E11E1D"/>
<path d="M12.3827 26.533C12.354 26.533 12.3253 26.5301 12.2971 26.5248C12.269 26.519 12.2415 26.5107 12.2145 26.4996C12.1882 26.4885 12.163 26.475 12.1389 26.4592C12.1149 26.4434 12.0927 26.4246 12.0721 26.4047C12.0522 26.3842 12.0335 26.3619 12.0177 26.3379C12.0018 26.3139 11.9884 26.2887 11.9772 26.2617C11.9661 26.2354 11.9579 26.2078 11.952 26.1797C11.9462 26.1516 11.9432 26.1223 11.9432 26.0936C11.9432 25.9781 11.9901 25.865 12.0721 25.783C12.0927 25.7625 12.1149 25.7443 12.1389 25.7285C12.163 25.7127 12.1882 25.6992 12.2145 25.6881C12.2415 25.677 12.269 25.6688 12.2971 25.6629C12.354 25.6518 12.412 25.6518 12.4688 25.6629C12.4969 25.6688 12.5245 25.677 12.5509 25.6881C12.5772 25.6992 12.603 25.7127 12.627 25.7285C12.6511 25.7443 12.6733 25.7631 12.6938 25.783C12.7753 25.865 12.8221 25.9781 12.8221 26.0936C12.8221 26.1223 12.8198 26.1516 12.8139 26.1797C12.8081 26.2078 12.7999 26.2354 12.7887 26.2617C12.7776 26.2887 12.7641 26.3139 12.7483 26.3379C12.7325 26.3619 12.7137 26.3842 12.6938 26.4047C12.6733 26.4246 12.6511 26.4434 12.627 26.4592C12.603 26.475 12.5772 26.4885 12.5509 26.4996C12.5245 26.5107 12.4969 26.519 12.4688 26.5248C12.4401 26.5301 12.4114 26.533 12.3827 26.533Z" fill="#19303F"/>
<path d="M12.3827 28.4078C12.354 28.4078 12.3253 28.4048 12.2971 28.3996C12.269 28.3937 12.2415 28.3855 12.2145 28.3744C12.1882 28.3632 12.163 28.3498 12.1389 28.3339C12.1149 28.3181 12.0927 28.2994 12.0721 28.2795C11.9901 28.1974 11.9432 28.0844 11.9432 27.9684C11.9432 27.9402 11.9462 27.9109 11.952 27.8828C11.9579 27.8546 11.9661 27.8271 11.9772 27.8001C11.9884 27.7738 12.0018 27.7486 12.0177 27.7246C12.0335 27.7005 12.0522 27.6783 12.0721 27.6578C12.0927 27.6373 12.1149 27.6191 12.1389 27.6033C12.163 27.5875 12.1882 27.574 12.2145 27.5628C12.2415 27.5517 12.269 27.5435 12.2971 27.5376C12.354 27.5265 12.412 27.5265 12.4688 27.5376C12.4969 27.5435 12.5245 27.5517 12.5509 27.5628C12.5772 27.574 12.603 27.5875 12.627 27.6033C12.6511 27.6191 12.6733 27.6373 12.6938 27.6578C12.7137 27.6783 12.7325 27.7005 12.7483 27.7246C12.7641 27.7486 12.7776 27.7738 12.7887 27.8001C12.7999 27.8271 12.8081 27.8546 12.8139 27.8828C12.8198 27.9109 12.8221 27.9402 12.8221 27.9684C12.8221 28.0844 12.7753 28.1975 12.6938 28.2795C12.6733 28.2994 12.6511 28.3181 12.627 28.3339C12.603 28.3498 12.5772 28.3632 12.5509 28.3744C12.5245 28.3855 12.4969 28.3937 12.4688 28.3996C12.4401 28.4048 12.4114 28.4078 12.3827 28.4078Z" fill="#19303F"/>
<path d="M17.6174 26.5328C17.5014 26.5328 17.3883 26.486 17.3063 26.4045C17.2864 26.3839 17.2676 26.3617 17.2518 26.3377C17.236 26.3136 17.2225 26.2879 17.2114 26.2615C17.2002 26.2351 17.192 26.2076 17.1862 26.1795C17.1809 26.1507 17.178 26.122 17.178 26.0933C17.178 26.0646 17.1809 26.0359 17.1862 26.0077C17.192 25.9796 17.2002 25.952 17.2114 25.9257C17.2225 25.8987 17.236 25.8735 17.2518 25.8495C17.2676 25.8255 17.2864 25.8032 17.3063 25.7827C17.3883 25.7007 17.5014 25.6538 17.6174 25.6538C17.7329 25.6538 17.8465 25.7007 17.928 25.7827C17.9485 25.8032 17.9667 25.8255 17.9825 25.8495C17.9983 25.8735 18.0118 25.8987 18.0229 25.9257C18.034 25.952 18.0422 25.9796 18.0481 26.0077C18.054 26.0358 18.0569 26.0646 18.0569 26.0933C18.0569 26.122 18.054 26.1507 18.0481 26.1795C18.0422 26.2076 18.034 26.2351 18.0229 26.2615C18.0118 26.2879 17.9983 26.3136 17.9825 26.3377C17.9667 26.3617 17.9485 26.3839 17.928 26.4045C17.8459 26.486 17.7329 26.5328 17.6174 26.5328Z" fill="#19303F"/>
<path d="M17.6174 28.4078C17.5014 28.4078 17.3883 28.361 17.3063 28.2795C17.2864 28.2589 17.2676 28.2367 17.2518 28.2127C17.236 28.1886 17.2225 28.1629 17.2114 28.1365C17.2002 28.1101 17.192 28.0826 17.1862 28.0545C17.1809 28.0263 17.178 27.997 17.178 27.9683C17.178 27.9402 17.1809 27.9109 17.1862 27.8827C17.192 27.8546 17.2002 27.8271 17.2114 27.8001C17.2225 27.7737 17.236 27.7485 17.2518 27.7245C17.2676 27.7005 17.2864 27.6776 17.3063 27.6577C17.3883 27.5757 17.5014 27.5288 17.6174 27.5288C17.7329 27.5288 17.8459 27.5757 17.928 27.6577C17.9485 27.6776 17.9667 27.7005 17.9825 27.7245C17.9983 27.7485 18.0118 27.7737 18.0229 27.8001C18.034 27.8271 18.0422 27.8546 18.0481 27.8827C18.054 27.9108 18.0569 27.9401 18.0569 27.9683C18.0569 27.997 18.054 28.0263 18.0481 28.0545C18.0422 28.0826 18.034 28.1101 18.0229 28.1365C18.0118 28.1629 17.9983 28.1886 17.9825 28.2127C17.9667 28.2367 17.9485 28.2589 17.928 28.2795C17.8459 28.361 17.7329 28.4078 17.6174 28.4078Z" fill="#19303F"/>
<path d="M18.9077 17.2719C18.777 17.1807 18.6053 17.1741 18.468 17.255C18.288 17.3609 17.9295 17.3946 17.6416 17.2674C17.4475 17.1817 17.3289 17.042 17.2891 16.8522C17.2852 16.8335 17.2799 16.8152 17.2735 16.7975C17.0845 16.15 16.4885 15.7009 15.8118 15.7009C15.5235 15.7009 15.2415 15.7844 15 15.9366C14.7584 15.7844 14.4764 15.7009 14.1882 15.7009C13.5116 15.7009 12.9157 16.1499 12.7265 16.797C12.72 16.8149 12.7148 16.8334 12.7108 16.8522C12.6709 17.042 12.5523 17.1818 12.3583 17.2674C12.0703 17.3946 11.712 17.3609 11.5319 17.255C11.3946 17.1741 11.2228 17.1807 11.0922 17.2719C10.9615 17.363 10.896 17.522 10.9245 17.6786C11.0267 18.2417 11.4655 18.938 12.2157 19.2245C12.7827 19.441 13.7232 19.4913 15 18.5198C15.8363 19.1561 16.5283 19.3541 17.0656 19.3541C17.3485 19.3541 17.5886 19.2992 17.7842 19.2245C18.5344 18.9381 18.9733 18.2417 19.0755 17.6787C19.1039 17.5219 19.0384 17.363 18.9077 17.2719Z" fill="#484655"/>
<path d="M16.5797 28.1384L16.0857 23.3587C16.035 22.8691 15.6258 22.5 15.1336 22.5H14.8783C14.3818 22.5 13.9627 22.8878 13.9241 23.3828L13.6097 27.4171C13.6002 27.5392 13.6421 27.6597 13.7253 27.7496C13.8084 27.8395 13.9254 27.8907 14.0478 27.8907H14.9764L15.8871 28.5413C15.9633 28.5956 16.0528 28.6231 16.1426 28.6231C16.2187 28.6231 16.295 28.6034 16.3635 28.5635C16.5129 28.4766 16.5974 28.3103 16.5797 28.1384Z" fill="#FB403F"/>
</svg>
