<svg width="30" height="30" viewBox="0 0 30 30" fill="none" xmlns="http://www.w3.org/2000/svg">
<path d="M13.2422 0C11.7882 0 10.6055 1.18277 10.6055 2.63672V3.57422L12.3633 4.45312H13.2422H14.1211L15.8789 3.57422V2.63672C15.8789 1.18277 14.6961 0 13.2422 0Z" fill="#FF6A4D"/>
<path d="M15.8789 3.57422V2.63672C15.8789 1.18277 14.6961 0 13.2422 0V4.45312H14.1211L15.8789 3.57422Z" fill="#E64D2E"/>
<path d="M0 26.4844C0.407285 28.4902 2.26852 30 4.39453 30C6.52055 30 8.44037 28.4902 8.84766 26.4844L6.9382 25.6055H1.22016L0 26.4844Z" fill="#474F54"/>
<path d="M4.39453 28.2422C2.94059 28.2422 1.75781 27.0594 1.75781 25.6055C1.75781 24.1515 2.94059 22.9688 4.39453 22.9688C5.84848 22.9688 7.08984 24.1515 7.08984 25.6055C7.08984 27.0594 5.84848 28.2422 4.39453 28.2422Z" fill="#F2F9FF"/>
<path d="M8.84766 10.6641H3.51562L1.75781 12.4219V17.6953L3.51562 18.5742H8.84766L11.4844 17.6953V12.9492L10.6055 12.4219L8.84766 10.6641Z" fill="#FF9100"/>
<path d="M1.75781 8.90625V12.4219H10.6055L11.4844 11.9669L10.6055 11.543V8.90625H1.75781Z" fill="#FABE2C"/>
<path d="M14.1211 26.4844H0V25.6055C0 22.2076 2.81309 19.4531 6.21094 19.4531L7.67578 18.5742H15.8789V25.0195L14.1211 26.4844Z" fill="#FF6A4D"/>
<path d="M0 17.6953H12.3633V19.4531H0V17.6953Z" fill="#32393F"/>
<path d="M18.5156 22.1425V25.4472L17.6367 26.4844H14.1211V19.4531H12.3633C11.3965 19.4531 10.6055 18.6621 10.6055 17.6953V13.3008H15.8789V15.9375C16.8457 15.9375 17.6367 16.7285 17.6367 17.6953V21.2109L18.5156 22.1425Z" fill="#575F64"/>
<path d="M18.5156 22.1425V25.4472L17.6367 26.4844H14.1211V19.4531H13.2422V13.3008H15.8789V15.9375C16.8457 15.9375 17.6367 16.7285 17.6367 17.6953V21.2109L18.5156 22.1425Z" fill="#474F54"/>
<path d="M15.8789 12.4219V11.543C15.8789 10.089 14.6961 8.90625 13.2422 8.90625C11.7882 8.90625 10.6055 10.089 10.6055 11.543V13.3008C10.6055 14.757 11.786 15.9375 13.2422 15.9375H20.332C21.7883 15.9375 22.9688 14.757 22.9688 13.3008V12.4219H15.8789Z" fill="#FF6A4D"/>
<path d="M22.9688 13.3008V12.4219H15.8789V11.543C15.8789 10.089 14.6961 8.90625 13.2422 8.90625V15.9375H20.332C21.7883 15.9375 22.9688 14.757 22.9688 13.3008Z" fill="#E64D2E"/>
<path d="M14.1211 4.45312H13.2422H12.3633L10.6055 5.33203V6.21094C10.6055 7.66488 11.7882 8.90625 13.2422 8.90625C14.6961 8.90625 15.8789 7.66488 15.8789 6.21094V5.33203L14.1211 4.45312Z" fill="#FFE1BA"/>
<path d="M15.8789 6.21094V5.33203L14.1211 4.45312H13.2422V8.90625C14.6961 8.90625 15.8789 7.66488 15.8789 6.21094Z" fill="#FFBFAB"/>
<path d="M13.2422 3.57422H10.6055V5.33203H13.2422H17.6367V3.57422H13.2422Z" fill="#474F54"/>
<path d="M13.2422 3.57422H17.6367V5.33203H13.2422V3.57422Z" fill="#32393F"/>
<path d="M25.3909 17.8918C25.2939 17.2078 25.1016 15.8602 24.718 13.1763L21.2109 11.543V18.5742C21.2109 19.9607 20.0165 21.2109 18.5156 21.2109H17.6367V26.4844H19.3945H28.2422L30 25.6055V23.8477C30 21.0359 28.0603 18.5845 25.3909 17.8918Z" fill="#E64D2E"/>
<path d="M26.4844 14.1797H23.8477C22.3937 14.1797 21.2109 12.9969 21.2109 11.543C21.2109 10.089 22.3937 8.90625 23.8477 8.90625H26.4844V14.1797Z" fill="#FF6A4D"/>
<path d="M25.8696 21.2375L25.614 22.2142L24.1286 21.4845C22.4335 22.0945 21.2109 23.7028 21.2109 25.6054C21.2109 28.0284 23.1824 29.9999 25.6055 29.9999C28.0285 29.9999 30 28.0284 30 25.6054C30 23.2728 28.1676 21.3772 25.8696 21.2375Z" fill="#32393F"/>
<path d="M25.6055 22.9688C24.1515 22.9688 22.9688 24.1515 22.9688 25.6055C22.9688 27.0594 24.1515 28.2422 25.6055 28.2422C27.0594 28.2422 28.2422 27.0594 28.2422 25.6055C28.2422 24.1515 27.0594 22.9688 25.6055 22.9688Z" fill="#DFE7F4"/>
<path d="M26.4758 25.481L25.8697 21.2377C25.7804 21.2323 25.6959 21.2109 25.6055 21.2109C25.085 21.2109 24.5923 21.3178 24.1287 21.4846L24.7352 25.7299L26.4758 25.481Z" fill="#C7CFE1"/>
</svg>
