<svg width="30" height="30" viewBox="0 0 30 30" fill="none" xmlns="http://www.w3.org/2000/svg">
<path d="M27.4986 4.00549L25.7842 21.1483H6.91135L5.1969 4.00549H27.4986Z" fill="#4ABBEF"/>
<path d="M27.4987 4.00549L25.7842 21.1483H16.0465V4.00549H27.4987Z" fill="#009BE5"/>
<path d="M30 6.42891C30 9.9791 27.1219 12.8572 23.5717 12.8572C20.0209 12.8572 17.1428 9.9791 17.1428 6.42891C17.1428 2.87813 20.0209 0 23.5717 0C27.1219 0 30 2.87813 30 6.42891Z" fill="#83E470"/>
<path d="M30 6.42891C30 9.9791 27.1219 12.8572 23.5717 12.8572V0C27.1219 0 30 2.87813 30 6.42891Z" fill="#01B763"/>
<path d="M26.9355 5.38779L23.5717 8.75166L22.9887 9.33467L20.2072 6.55322L21.4506 5.31045L22.9887 6.84853L23.5717 6.26553L25.6922 4.14502L26.9355 5.38779Z" fill="#F3FDFF"/>
<path d="M26.9356 5.38779L23.5717 8.75166V6.26553L25.6922 4.14502L26.9356 5.38779Z" fill="#D7F3F7"/>
<path d="M19.2142 16.1384H20.972V17.8962H19.2142V16.1384Z" fill="#224370"/>
<path d="M15.1676 16.1385H16.9254V17.8964H15.1676V16.1385Z" fill="#39689E"/>
<path d="M16.0465 16.1385H16.9254V17.8964H16.0465V16.1385Z" fill="#224370"/>
<path d="M11.121 16.1384H12.8788V17.8962H11.121V16.1384Z" fill="#39689E"/>
<path d="M5.79316 23.0273C5.76973 23.6742 6.28945 24.2074 6.93105 24.2074H25.8791C25.8809 24.2074 25.8814 24.2086 25.8814 24.2098V25.9629C25.8814 25.9641 25.8809 25.9652 25.8791 25.9652H6.98145C5.37949 25.9652 4.04297 24.6861 4.03477 23.0842C4.02832 21.8156 4.8416 20.734 5.97422 20.3361C5.97539 20.3355 5.97598 20.335 5.97598 20.3338L4.11855 1.76016C4.11797 1.75898 4.11738 1.75781 4.11621 1.75781H0.00234375C0.00117187 1.75781 0 1.75664 0 1.75547V0.00234375C0 0.00117187 0.00117187 0 0.00234375 0H5.70703C5.7082 0 5.70879 0.00117187 5.70938 0.00234375L7.72617 20.1709C7.72617 20.1721 7.72734 20.1732 7.72852 20.1732H25.8791C25.8809 20.1732 25.8814 20.1738 25.8814 20.1756V21.9287C25.8814 21.9299 25.8809 21.9311 25.8791 21.9311H6.96094C6.34336 21.9311 5.81543 22.4104 5.79316 23.0273Z" fill="#39689E"/>
<path d="M25.8815 20.1756V21.9287C25.8815 21.9299 25.8809 21.931 25.8791 21.931H16.0465V20.1732H25.8791C25.8809 20.1732 25.8815 20.1738 25.8815 20.1756Z" fill="#224370"/>
<path d="M25.8791 24.2074C25.8809 24.2074 25.8815 24.2086 25.8815 24.2097V25.9629C25.8815 25.964 25.8809 25.9652 25.8791 25.9652H16.0465V24.2074H25.8791Z" fill="#224370"/>
<path d="M10.6387 30C11.8222 30 12.7816 29.0406 12.7816 27.8572C12.7816 26.6737 11.8222 25.7144 10.6387 25.7144C9.45529 25.7144 8.49591 26.6737 8.49591 27.8572C8.49591 29.0406 9.45529 30 10.6387 30Z" fill="#4ABBEF"/>
<path d="M21.3786 30C22.5621 30 23.5214 29.0406 23.5214 27.8572C23.5214 26.6737 22.5621 25.7144 21.3786 25.7144C20.1952 25.7144 19.2358 26.6737 19.2358 27.8572C19.2358 29.0406 20.1952 30 21.3786 30Z" fill="#009BE5"/>
</svg>
