<svg width="266" height="266" viewBox="0 0 266 266" fill="none" xmlns="http://www.w3.org/2000/svg">
<g clip-path="url(#clip0)">
<path d="M16.625 18.0991C-4.2782 39.8113 -2.95315e-05 62.8757 -2.95315e-05 132.945C-2.95315e-05 191.132 -10.1524 249.464 42.9811 263.196C59.5729 267.463 206.582 267.463 223.152 263.174C245.274 257.466 263.273 239.522 265.734 208.234C266.078 203.867 266.078 62.0999 265.723 57.6444C263.107 24.3168 242.592 5.1094 215.56 1.21915C209.364 0.321402 208.123 0.0554019 176.336 -1.47383e-05C63.585 0.0554019 38.8692 -4.96535 16.625 18.0991V18.0991Z" fill="url(#paint0_linear)"/>
<path d="M132.978 34.7906C92.7343 34.7906 54.519 31.2107 39.9222 68.6723C33.8929 84.1447 34.7685 104.239 34.7685 133.011C34.7685 158.259 33.9594 181.988 39.9222 197.339C54.4857 234.823 93.0114 231.232 132.956 231.232C171.492 231.232 211.226 235.244 226 197.339C232.041 181.711 231.154 161.916 231.154 133.011C231.154 94.6406 233.271 69.8693 214.662 51.2715C195.82 32.4298 170.34 34.7906 132.934 34.7906H132.978ZM124.178 52.4907C208.123 52.3577 218.807 43.0255 212.911 172.667C210.816 218.519 175.904 213.487 132.989 213.487C54.7406 213.487 52.4907 211.248 52.4907 132.967C52.4907 53.7763 58.6974 52.535 124.178 52.4685V52.4907ZM185.402 68.7943C178.896 68.7943 173.62 74.0699 173.62 80.5758C173.62 87.0818 178.896 92.3574 185.402 92.3574C191.908 92.3574 197.184 87.0818 197.184 80.5758C197.184 74.0699 191.908 68.7943 185.402 68.7943V68.7943ZM132.978 82.5708C105.125 82.5708 82.5487 105.159 82.5487 133.011C82.5487 160.864 105.125 183.44 132.978 183.44C160.83 183.44 183.396 160.864 183.396 133.011C183.396 105.159 160.83 82.5708 132.978 82.5708V82.5708ZM132.978 100.271C176.258 100.271 176.314 165.751 132.978 165.751C89.7086 165.751 89.6421 100.271 132.978 100.271Z" fill="white"/>
</g>
<defs>
<linearGradient id="paint0_linear" x1="17.135" y1="249.01" x2="264.354" y2="35.0452" gradientUnits="userSpaceOnUse">
<stop stop-color="#FFDD55"/>
<stop offset="0.5" stop-color="#FF543E"/>
<stop offset="1" stop-color="#C837AB"/>
</linearGradient>
<clipPath id="clip0">
<rect width="266" height="266" fill="white"/>
</clipPath>
</defs>
</svg>
