<svg width="85" height="86" viewBox="0 0 85 86" fill="none" xmlns="http://www.w3.org/2000/svg">
<g clip-path="url(#clip0)">
<path fill-rule="evenodd" clip-rule="evenodd" d="M66.9054 8.77013C67.1792 8.84839 70.5981 13.2516 69.3638 13.2516C68.5152 13.2516 66.6576 9.19382 66.7082 9.08278C66.8061 8.8677 67.0735 8.81819 66.9054 8.77013V8.77013Z" fill="#FF9737"/>
<path fill-rule="evenodd" clip-rule="evenodd" d="M57.1611 11.6882C56.2537 11.6545 54.7226 10.9422 53.8778 10.601C52.9304 10.2184 52.0613 9.5236 51.2907 8.97856C52.7237 8.72341 54.1797 8.98625 54.9848 9.54554C55.6596 10.0144 56.8043 11.0729 57.1611 11.6882V11.6882ZM49.646 0.508737C52.1698 1.1221 55.4991 1.78185 57.4401 2.99617C58.4124 3.6045 58.4966 3.31411 59.427 3.62757C60.1748 3.87949 59.9548 4.53067 62.5512 5.81994C63.3857 6.23433 63.5175 6.58461 64.1273 6.91076C63.9561 5.83526 62.5664 4.38593 61.8048 3.79227C59.2113 1.77051 55.7268 0.734214 52.3586 0.111052C51.8881 0.0239577 51.5825 -0.0216223 51.0295 0.0100935C49.8271 0.0790498 49.8081 0.33989 49.646 0.508737V0.508737ZM30.0247 26.5846C31.4641 25.3139 30.5728 23.0951 36.0163 22.3504C39.5943 21.8609 40.5954 20.2028 44.4264 20.0894C46.4774 21.0376 48.7701 22.2788 50.7643 22.3922C53.8558 22.5679 54.2696 22.7413 55.7802 24.2514C56.1232 24.5943 56.551 25.4265 57.0337 26.7716C60.3753 26.4072 63.3901 25.948 66.0744 25.3818C67.4513 25.0914 68.7411 24.7728 69.9552 24.4448C68.8189 22.428 66.3847 18.4482 65.8862 17.68C65.0886 16.4509 64.1917 15.7598 63.1067 14.8876C62.1338 14.1056 60.2757 13.4156 59.7593 12.6875C63.9587 12.3744 63.4579 14.6277 66.6779 17.9187C67.5792 18.84 68.7378 19.7382 70.1384 20.5041C71.3835 21.1851 71.7403 22.486 72.2228 23.8005C73.1459 23.5267 74.0224 23.2547 74.8585 22.9951C73.9056 19.2477 71.2468 17.2848 68.3055 15.3358C65.4274 13.4288 66.1177 11.9902 62.3427 10.0449C61.0601 9.38396 58.3695 8.71621 57.0478 7.80586C54.1116 5.78356 53.2151 5.02358 48.8635 4.81864C43.3043 4.55686 42.5118 2.45513 35.3087 4.53977C27.0106 6.94136 23.3172 6.88168 17.2381 11.6696C15.8024 12.8004 14.3282 14.1535 12.8845 15.3163C5.28003 21.4411 6.27257 21.3903 3.42188 28.46C3.31211 28.7322 3.019 29.4408 2.69713 30.2523C4.36054 29.8963 6.10262 29.594 7.91764 29.3401C8.78101 26.6424 9.06517 23.7401 11.2978 21.3637C12.8671 19.6933 14.425 18.8208 16.3174 17.5418C20.7078 14.5746 22.8212 11.3526 26.5461 9.90924C29.1622 8.89548 31.7 8.88879 34.8307 8.49243C40.6808 7.75179 43.0223 5.23178 47.9905 8.06884C48.5283 8.37591 48.9963 8.51763 49.3569 8.88595C45.9507 9.43713 45.5555 7.61291 43.0313 8.37954C41.8354 8.74272 40.8105 9.02133 39.5084 9.02519C37.9366 9.0298 37.6355 8.90083 36.0398 9.56925L30.8172 12.274C26.0816 14.761 25.6677 13.4051 20.9717 18.1561C18.683 20.4717 14.5182 23.7693 13.419 25.6357C13.1469 26.0978 12.5321 27.592 12.0971 28.8509C14.2597 28.642 16.499 28.4866 18.7783 28.3677C19.2231 27.8443 19.8752 27.3408 20.8851 26.6429C27.5444 22.0416 26.0307 18.3468 33.3129 17.1768C34.0142 17.0641 34.3177 16.898 34.8189 16.7447C35.4006 16.567 35.7761 16.5221 36.386 16.297C39.7081 15.0705 41.7448 13.3492 44.8611 13.688C47.9524 14.0241 50.6945 16.0911 52.6281 15.9077C54.2886 15.7503 54.0196 15.7097 54.8187 16.3703C55.3329 16.7953 54.8527 16.4953 55.3172 16.7041C55.3689 17.2552 55.6342 17.5264 56.0178 17.8871C57.5024 19.2827 59.2705 17.6329 59.827 20.2351L54.6563 18.6379C52.9218 17.9594 52.2166 16.7062 49.9859 16.4438C48.2373 16.2383 46.3288 16.5789 43.7724 16.0554C40.6038 15.4065 40.2569 15.9317 37.5898 16.9584C35.9825 17.5771 32.8683 18.1037 31.604 18.8861C30.8393 19.3593 29.6324 21.0975 27.802 22.2869C23.2934 25.2166 24.8816 24.9872 22.9726 28.1075C22.9577 28.1317 22.9399 28.1591 22.9195 28.1892C25.0246 28.1153 27.1444 28.0631 29.2513 28.0199C29.6096 27.5683 29.983 27.0748 30.0247 26.5846V26.5846ZM34.1623 25.9747C33.3286 26.267 31.9653 27.0976 30.9365 27.9869C34.5439 27.9191 38.091 27.8676 41.4368 27.7673C46.0195 27.6299 50.2243 27.4008 54.0472 27.0646C53.3348 26.2304 52.1831 24.8073 51.9559 24.5254C51.3801 23.8114 51.3805 23.4675 50.1993 23.4059C49.6969 23.0677 48.8179 23.2934 48.0254 23.2014C47.3894 23.1276 46.638 22.8183 46.1958 22.6171C43.7718 21.5143 44.3024 22.1189 41.8111 22.709C39.774 23.1916 38.8615 22.5092 37.2231 23.7425C36.5679 24.2357 35.2098 25.6548 34.1623 25.9747V25.9747ZM7.22339 14.1862C10.0744 13.1293 10.7141 11.1627 13.2663 9.84756C16.348 8.25963 18.1433 6.2181 19.3899 5.73462C20.4339 5.32979 21.2801 5.74877 23.9748 4.71539C25.0043 4.32065 26.698 3.53385 27.5058 2.95432C29.1704 1.76001 34.6163 1.83293 37.1902 1.31669C36.6169 -0.0927938 30.057 0.467118 27.8935 1.06818C26.0978 1.56703 25.6423 2.23791 24.1767 2.98043C20.7075 4.73793 17.515 3.7906 15.713 6.25747C13.536 9.23756 12.9322 7.11573 9.60255 11.0101C8.87349 11.8628 7.38139 13.095 7.22339 14.1862V14.1862Z" fill="#FF9737"/>
<path fill-rule="evenodd" clip-rule="evenodd" d="M14.1334 61.6258C15.7583 67.5699 27.6199 74.9803 32.124 75.4857C35.3193 70.6728 35.2049 71.117 28.6801 67.8081C23.8103 65.3384 22.6146 62.7815 22.0116 58.9691C19.2638 59.72 16.4451 60.6037 14.7889 61.3516C14.6071 61.4336 14.3926 61.5212 14.1503 61.6131C14.1448 61.6173 14.1389 61.6216 14.1334 61.6258V61.6258ZM55.2091 54.9574C56.4558 56.3285 60.7287 59.0548 62.3559 59.8345L68.5965 62.3186L70.0243 59.6054C68.5765 58.9778 67.3233 58.3474 66.0084 57.5664C64.3531 56.5831 62.9209 55.1036 61.6417 54.1471C61.3246 54.2001 61.0112 54.2475 60.7033 54.2884C58.8031 54.5969 56.9827 54.8069 55.2091 54.9574V54.9574ZM49.23 55.2973C50.2148 59.6981 58.605 62.0787 60.3181 62.9929C65.192 65.5938 61.5434 67.7646 59.4575 71.5917C61.5506 70.5712 66.5156 65.9045 67.5908 63.5592C67.5521 63.5026 62.8004 61.4895 59.0891 59.1631C56.6777 57.6515 55.0347 55.8207 54.1156 55.0434C52.4603 55.1635 50.8408 55.2375 49.23 55.2973ZM62.8481 53.922C64.2434 55.3104 69.0991 58.2057 70.73 58.4257C71.1746 57.1699 71.6952 56.0257 72.0638 54.7691C72.3392 53.9412 72.5685 52.2408 72.694 51.1718C70.0274 52.1237 67.1573 52.9692 64.181 53.6233C63.7352 53.7313 63.2897 53.8314 62.8481 53.922ZM51.047 75.5362C52.7031 75.2396 54.3766 74.516 55.6542 73.9189C57.3344 73.1337 57.5921 72.3621 58.6016 70.9382C60.571 68.1603 62.6696 65.788 59.907 64.1715C58.5116 63.3552 53.582 61.3987 50.7908 59.1978C48.895 57.7031 48.3246 55.9659 48.0637 55.3385C46.364 55.3964 44.6665 55.4473 42.9395 55.5288C43.8372 56.9891 45.6762 59.9874 47.4956 61.2505C50.3478 63.2307 53.8943 64.0874 55.0407 65.1075C58.5808 68.2575 53.8018 70.6992 51.047 75.5362ZM22.9914 58.6784C23.6788 62.4341 27.8376 66.0568 30.9238 67.4653C38.3157 70.8385 35.1865 72.4068 33.2353 75.8645C34.3096 76.1678 36.0057 76.5358 37.2701 76.515C38.0181 75.0817 40.3012 72.5189 40.8011 71.0296C41.9463 67.6175 33.7932 67.0443 30.1771 62.7582C29.6421 62.1241 28.7506 58.854 28.1739 57.4465C26.393 57.8322 24.6727 58.2454 22.9914 58.6784V58.6784ZM29.5494 57.1569C30.0962 58.7288 30.5991 61.744 31.9352 62.8319C34.346 64.6904 36.8114 65.5287 39.4941 66.964C46.0311 70.4615 38.9191 74.0305 38.3527 76.7762C39.7903 76.8123 41.2747 77.007 42.7187 76.7275C44.1066 75.1587 45.4423 73.1028 46.5741 71.3645C49.6152 66.6943 45.1604 66.9721 40.1286 63.896C36.5659 61.8727 35.3301 58.0705 34.9224 56.212C33.7998 56.3708 32.6495 56.5581 31.4643 56.7807C30.8172 56.9022 30.1796 57.0279 29.5494 57.1569V57.1569ZM49.04 76.1046C50.1459 75.7072 55.5162 68.2269 54.8265 66.7748C54.1144 65.2755 48.7084 63.4696 46.0659 61.6796C45.0406 60.9851 41.9065 57.5828 41.0228 55.6328C39.4776 55.729 37.9 55.8601 36.2683 56.0515C38.3743 62.4144 43.5934 63.8639 47.4585 66.3101C51.7799 69.0451 45.6122 73.6671 43.9124 76.7927C45.0373 76.7034 48.1497 76.4245 49.04 76.1046V76.1046Z" fill="#F24141"/>
<path fill-rule="evenodd" clip-rule="evenodd" d="M2.05304 57.7067C1.94812 57.5662 1.83916 57.4101 1.7262 57.2382C1.54864 56.949 1.39528 56.5532 1.2661 56.051C1.21766 55.8626 1.29626 55.6335 1.50193 55.3635C1.70758 55.0935 1.9455 54.8822 2.21572 54.7296C2.48594 54.5769 2.75015 54.5011 3.00829 54.5021C3.26643 54.5031 3.4359 54.6605 3.51664 54.9744L3.57719 55.2099C3.82748 56.0492 4.31768 56.6851 5.04787 57.1175C5.77806 57.55 6.6352 57.674 7.61939 57.4896C8.70839 57.3118 9.60782 56.8981 10.3176 56.2485C11.0274 55.5989 11.5677 54.8588 11.9386 54.0281C12.3095 53.1974 12.5392 52.3525 12.6278 51.4935C12.7164 50.6346 12.6839 49.9069 12.5305 49.3104C12.3448 48.5884 12.0402 48.0055 11.6165 47.5617C11.1929 47.1179 10.7875 46.8785 10.4003 46.8436C10.247 46.9162 10.1058 46.969 9.97674 47.0019C9.84768 47.0349 9.71861 47.0679 9.58954 47.1008C8.52468 47.3727 7.93578 47.289 7.82274 46.8495C7.78238 46.6925 7.84688 46.4753 8.01625 46.1979C8.18557 45.9204 8.49612 45.7241 8.94785 45.6087C9.1092 45.5675 9.27255 45.5341 9.43792 45.5087C9.60329 45.4831 9.77068 45.4655 9.9401 45.4557C10.0207 45.3682 10.2889 45.0739 10.7446 44.5728C11.2003 44.0717 11.6499 43.4467 12.0934 42.6978C12.537 41.9489 12.9039 41.1025 13.1941 40.1586C13.4843 39.2147 13.5042 38.2561 13.254 37.283C12.8825 35.839 11.8256 35.3394 10.0832 35.7844C9.47012 35.9409 8.80665 36.3027 8.09286 36.8697C7.37904 37.4368 6.71361 38.1252 6.09664 38.9351C5.4797 39.745 4.95147 40.6326 4.512 41.5979C4.07257 42.5633 3.83276 43.5026 3.79264 44.4162C3.81689 44.6441 3.79677 44.8333 3.73225 44.9836C3.62748 45.3783 3.47827 45.6004 3.28466 45.6499C3.22016 45.6663 3.04668 45.5935 2.7643 45.4315C2.48189 45.2694 2.16318 45.033 1.80817 44.7222C1.45315 44.4114 1.10818 44.0395 0.773311 43.6065C0.438437 43.1735 0.206374 42.7059 0.0772003 42.2036C-0.0116443 41.8583 -0.0237797 41.5436 0.0406633 41.2595C0.0729372 41.2512 0.222145 40.9622 0.488234 40.3924C0.754297 39.8227 1.23618 39.156 1.93384 38.3924C2.63149 37.6288 3.57316 36.8447 4.7589 36.0401C5.94458 35.2355 7.47317 34.5942 9.34468 34.1163C9.89321 33.9762 10.5547 33.8742 11.3291 33.8102C12.1036 33.7463 12.874 33.8005 13.6405 33.9727C14.4069 34.145 15.1068 34.4931 15.7402 35.0172C16.3736 35.5413 16.8235 36.3213 17.0899 37.3572C17.1545 37.6083 17.207 37.8793 17.2474 38.1701C17.2878 38.4608 17.304 38.7912 17.296 39.1613C17.2639 39.9723 17.0705 40.7577 16.7157 41.5174C16.4093 42.1978 15.9153 42.9178 15.2338 43.6772C14.5523 44.4367 13.5743 45.1465 12.2998 45.8065C12.3321 45.7983 12.56 45.8154 12.9835 45.8577C13.4071 45.9001 13.8811 46.0383 14.4055 46.2724C14.9299 46.5065 15.4423 46.8607 15.9425 47.3351C16.4428 47.8096 16.806 48.4862 17.0321 49.3652C17.3308 50.5267 17.3452 51.6521 17.0752 52.7414C16.8051 53.8307 16.3153 54.834 15.6055 55.7512C14.8958 56.6684 13.9925 57.4678 12.8955 58.1494C11.7985 58.831 10.5885 59.3407 9.26557 59.6786C8.74929 59.8104 8.18055 59.9055 7.5594 59.9637C6.93827 60.022 6.31102 59.9898 5.67771 59.8672C5.04439 59.7445 4.40906 59.5137 3.77167 59.1747C3.13427 58.8357 2.5614 58.3463 2.05304 57.7067V57.7067ZM3.67372 53.9809C3.60112 53.966 3.55067 53.8701 3.52239 53.6934C3.49415 53.5166 3.46988 53.2886 3.44963 53.0094C3.42942 52.7302 3.43135 52.437 3.45549 52.1297C3.47963 51.8225 3.5078 51.531 3.54002 51.2551C3.59633 50.5382 3.70306 49.7164 3.86017 48.7897C4.01725 47.8631 4.20864 46.936 4.43433 46.0086C4.66001 45.0812 4.92199 44.1947 5.2203 43.349C5.51861 42.5034 5.83309 41.7875 6.16372 41.2013C6.16372 41.2013 6.17782 41.1558 6.20601 41.065C6.23426 40.9741 6.30882 40.8631 6.42981 40.7319C6.5508 40.6006 6.74638 40.4586 7.01663 40.306C7.28685 40.1533 7.66393 40.0152 8.14794 39.8916C8.24476 39.8669 8.34762 39.8657 8.45655 39.8881C8.56546 39.9104 8.64413 40.0158 8.69256 40.2042C8.73295 40.3611 8.68056 40.6254 8.53541 40.997C8.39028 41.3686 8.21897 41.9393 8.02151 42.709C7.82405 43.4787 7.62258 44.5003 7.41715 45.7738C7.21171 47.0473 7.05274 48.6686 6.9402 50.6377C6.94831 50.8029 6.95443 51.094 6.95856 51.5112C6.9627 51.9283 6.95271 52.3574 6.92859 52.7984C6.90448 53.2395 6.85214 53.6376 6.77156 53.9927C6.69096 54.3478 6.56997 54.546 6.40865 54.5872C6.15052 54.6531 5.75724 54.6615 5.2288 54.6125C4.70042 54.5634 4.26676 54.4149 3.92788 54.1669L3.67372 53.9809V53.9809ZM21.2651 47.3821C21.2472 47.4527 21.2572 47.5335 21.2952 47.6246C21.3331 47.7157 21.3432 47.7965 21.3252 47.8671C21.2931 48.1736 21.279 48.5591 21.2832 49.0235C21.2873 49.488 21.3275 49.9609 21.4038 50.4421C21.4801 50.9234 21.5952 51.3875 21.749 51.8345C21.9029 52.2815 22.1135 52.6407 22.3809 52.9122C22.4748 53.0238 22.4948 53.1854 22.4409 53.3971C22.3977 53.5067 22.3292 53.5805 22.2354 53.6185C22.1417 53.6565 22.0623 53.6829 21.9973 53.6977C21.8602 53.6956 21.6644 53.6987 21.41 53.7069C21.1556 53.715 20.884 53.6855 20.5952 53.6184C20.3065 53.5512 20.0068 53.4367 19.6963 53.2747C19.3857 53.1128 19.122 52.8571 18.9051 52.5076C18.7352 52.2139 18.5868 51.8654 18.4601 51.4621C18.3333 51.0589 18.2373 50.6403 18.1718 50.2064C18.1064 49.7725 18.0689 49.3489 18.0595 48.9355C18.05 48.5221 18.0451 48.1659 18.0448 47.8668C18.0482 47.733 18.0623 47.3475 18.0868 46.7103C18.1114 46.0731 18.1575 45.3062 18.2251 44.4099C18.2927 43.5135 18.3845 42.5368 18.5007 41.4798C18.6168 40.4228 18.7763 39.4058 18.9792 38.4287C19.182 37.4516 19.4183 36.5833 19.6882 35.8237C19.958 35.0641 20.2912 34.5061 20.6878 34.1498C20.6806 34.1182 20.7346 34.056 20.85 33.9632C20.9726 33.902 21.1115 33.8371 21.2666 33.7685C21.4217 33.6999 21.6291 33.636 21.8889 33.5768C21.9538 33.562 22.045 33.5495 22.1623 33.5394C22.2795 33.5293 22.4229 33.5216 22.5925 33.5162C22.737 33.5497 23.0275 33.6248 23.4643 33.7413C23.9011 33.8578 24.21 34.1614 24.391 34.6521C24.42 34.7784 24.3841 34.9196 24.2832 35.0756C24.258 35.1146 24.2264 35.1633 24.1886 35.2218C24.1508 35.2803 24.1066 35.3485 24.0562 35.4265C23.9156 35.5583 23.7068 35.9882 23.4297 36.7162C23.1526 37.4443 22.8649 38.3492 22.5665 39.4311C22.2682 40.5131 21.9907 41.7232 21.7341 43.0616C21.4775 44.3999 21.3355 45.7537 21.3081 47.123C21.2902 47.1936 21.283 47.2367 21.2866 47.2525C21.2902 47.2683 21.2831 47.3115 21.2651 47.3821V47.3821ZM29.703 35.778C29.975 36.0834 29.9734 36.4239 29.6981 36.7994C29.4228 37.1749 29.0482 37.5639 28.5743 37.9663C28.1003 38.3688 27.6229 38.7554 27.1419 39.1261C26.661 39.4969 26.3799 39.8074 26.2987 40.0574C26.2476 40.135 26.1895 40.1809 26.1244 40.1952C26.0593 40.2094 25.9356 40.2282 25.7532 40.2516C25.5707 40.2749 25.3354 40.2518 25.0472 40.1822C24.7591 40.1126 24.5254 39.9813 24.3464 39.7882C24.1744 39.6269 24.0424 39.4152 23.9505 39.1533C23.8587 38.8914 23.894 38.5104 24.0565 38.0103C24.2376 37.4397 24.5796 36.9417 25.0826 36.5163C25.5856 36.091 26.1293 35.7728 26.7137 35.5618C27.2981 35.3509 27.8663 35.2596 28.4183 35.288C28.9702 35.3164 29.3985 35.4798 29.703 35.778V35.778ZM26.177 41.1293C26.3606 41.1886 26.5815 41.3393 26.8395 41.5814C27.0975 41.8235 27.1546 42.1594 27.0106 42.5891C26.9038 42.8779 26.7947 43.2336 26.6833 43.6562C26.5719 44.0788 26.4675 44.533 26.37 45.0188C26.2957 45.3005 26.2395 45.5866 26.2012 45.877C26.163 46.1674 26.123 46.4499 26.0813 46.7245C25.9654 47.7453 26.007 48.7067 26.206 49.6088C26.405 50.5108 26.7753 51.1846 27.317 51.63C27.4029 51.7107 27.4843 51.809 27.561 51.9249C27.6378 52.0408 27.6018 52.1483 27.4531 52.2472C27.2718 52.3532 27.0517 52.4761 26.7926 52.6158C26.5335 52.7555 26.2349 52.8707 25.8969 52.9613C25.5587 53.052 25.1875 53.1084 24.7831 53.1307C24.3788 53.1529 23.957 53.0959 23.5177 52.9599C23.3341 52.9005 23.212 52.8112 23.1516 52.6917C23.0911 52.5722 23.0376 52.4844 22.9911 52.4282C22.8283 51.9994 22.6863 51.3171 22.5651 50.3814C22.444 49.4457 22.4935 48.2403 22.7138 46.7653C22.9387 45.1566 23.2073 43.8618 23.5195 42.8809C23.8318 41.9001 24.0135 41.3709 24.0645 41.2933C24.1714 41.0045 24.3944 40.8561 24.7337 40.8481C25.073 40.8402 25.3147 40.8536 25.4588 40.8884C25.5308 40.9058 25.6209 40.9275 25.729 40.9536C25.8371 40.9797 25.9864 41.0383 26.177 41.1293V41.1293ZM31.595 51.085C30.7589 51.1468 30.0852 51.1279 29.5739 51.0283C29.0627 50.9287 28.6531 50.7848 28.3452 50.5965C28.0373 50.4082 27.8214 50.1692 27.6973 49.8795C27.5734 49.5898 27.4938 49.2668 27.4586 48.9106C27.4352 48.0899 27.4472 47.3202 27.4945 46.6015C27.5417 45.8828 27.6361 45.188 27.7774 44.5172C27.9188 43.8464 28.0847 43.1708 28.2751 42.4906C28.4656 41.8103 28.6861 41.0665 28.9367 40.2592C29.0508 39.9732 29.2858 39.8289 29.6416 39.8264C29.9973 39.8241 30.2304 39.8451 30.3409 39.8899C30.4124 39.9091 30.5101 39.9316 30.6338 39.9573C30.7575 39.9829 30.9135 40.0437 31.1017 40.1395C31.251 40.2098 31.4515 40.3692 31.7033 40.6178C31.955 40.8664 32.0034 41.2037 31.8485 41.6296C31.7344 41.9156 31.6161 42.2684 31.4939 42.688C31.3717 43.1076 31.2556 43.559 31.1458 44.0422C31.1112 44.2139 31.0751 44.3776 31.0374 44.5334C30.9998 44.6892 30.9636 44.8529 30.9291 45.0246C31.0025 44.8784 31.1592 44.5924 31.3989 44.1667C31.6387 43.741 31.9607 43.2582 32.3649 42.7183C32.7691 42.1785 33.2372 41.6181 33.7692 41.0371C34.3012 40.4561 34.8961 39.9373 35.5539 39.4806C35.607 39.4044 35.6811 39.3489 35.7761 39.3141C35.8711 39.2793 35.9452 39.2238 35.9982 39.1476C36.2414 39.0018 36.5152 38.883 36.8198 38.7914C37.1243 38.6998 37.4157 38.7592 37.694 38.9697C38.1216 39.2505 38.3198 39.6166 38.2886 40.0682C38.2574 40.5198 38.1878 40.9045 38.0798 41.2224C38.0248 41.464 37.9632 41.7151 37.8951 41.9758C37.8268 42.2365 37.752 42.5067 37.6705 42.7864C37.6217 43.0598 37.5663 43.3428 37.5043 43.6352C37.4422 43.9278 37.3868 44.2107 37.3381 44.4842C37.2287 45.4954 37.2538 46.4559 37.4133 47.3659C37.5727 48.2759 37.9338 48.9573 38.4965 49.4101C38.5804 49.4929 38.6511 49.5948 38.7084 49.7158C38.7658 49.8368 38.7189 49.9449 38.5677 50.0399C38.3838 50.1414 38.1605 50.2586 37.898 50.3917C37.6354 50.5247 37.334 50.6323 36.9936 50.7142C36.6533 50.7963 36.2807 50.8432 35.876 50.8551C35.4712 50.867 35.0509 50.7994 34.6153 50.6522C34.4333 50.5882 34.3135 50.4957 34.2562 50.3747C34.1988 50.2537 34.1476 50.1646 34.1026 50.1072C33.9958 49.7317 33.8884 49.1335 33.7801 48.3127C33.6719 47.4919 33.6999 46.4551 33.8642 45.2023C33.8864 44.9669 33.9219 44.7126 33.9707 44.4391C34.0195 44.1657 34.0979 43.8701 34.2058 43.5523L34.1874 43.4568C34.1158 43.4375 34.0667 43.447 34.0402 43.4851C33.7298 43.8089 33.4189 44.174 33.1075 44.5805C32.7962 44.987 32.5365 45.4413 32.3285 45.9434C31.994 46.6679 31.8119 47.4786 31.7822 48.3755C31.7908 48.7699 31.8096 49.1293 31.8386 49.4538C31.8675 49.7783 31.9005 50.036 31.9375 50.2269C31.9807 50.4496 31.9921 50.5959 31.9717 50.6659C31.9045 50.8438 31.8279 50.9741 31.7422 51.0566C31.6829 51.101 31.6339 51.1104 31.595 51.085V51.085Z" fill="#F24141"/>
<path fill-rule="evenodd" clip-rule="evenodd" d="M44.5064 46.0581C43.3243 46.0451 42.4115 45.8672 41.7679 45.5244C41.1243 45.1817 40.6991 44.7804 40.4922 44.3206C40.2854 43.8608 40.2798 43.3943 40.4754 42.9211C40.671 42.4479 41.0146 42.0583 41.5061 41.7523C41.9368 41.4886 42.387 41.2956 42.8567 41.1734C43.3264 41.0512 43.7707 40.9821 44.1896 40.9662C44.6085 40.9503 44.9983 40.9635 45.3589 41.0058C45.7195 41.0482 46.0061 41.102 46.2186 41.1674C46.3603 41.211 46.464 41.2277 46.5298 41.2174C46.6007 41.2392 46.6525 41.2475 46.6854 41.2424C46.6905 41.2745 46.7094 41.2879 46.7423 41.2828C46.8518 40.905 46.9699 40.5832 47.0969 40.3175C47.2239 40.0518 47.3077 39.8338 47.3485 39.6634C47.6611 38.8605 48.0225 37.9925 48.4326 37.0596C48.8429 36.1267 49.1445 35.4156 49.3377 34.9264C49.3834 34.7881 49.4342 34.6818 49.49 34.6076L49.5737 34.4962C49.706 34.0492 49.7725 33.6125 49.7732 33.186C49.0284 33.597 48.355 34.087 47.753 34.6562C47.151 35.2253 46.635 35.8057 46.2051 36.3973C45.7751 36.9889 45.4357 37.5665 45.1868 38.1299C44.9379 38.6934 44.827 39.1698 44.8543 39.5591C44.8615 39.8204 44.7903 40.0119 44.6408 40.1335C44.4913 40.2551 44.3457 40.2942 44.204 40.2506C43.8927 40.2006 43.5708 40.1358 43.2381 40.0564C42.9053 39.9769 42.6202 39.8244 42.3826 39.5989C42.1451 39.3735 41.9855 39.0539 41.9038 38.6402C41.8222 38.2265 41.8768 37.6605 42.0678 36.942C42.4039 35.6434 42.9879 34.4211 43.8199 33.275C44.5124 32.3146 45.5193 31.3709 46.8407 30.444C48.1621 29.517 49.9039 28.8527 52.066 28.451C53.8383 28.1427 55.3005 28.1696 56.4529 28.5317C57.6052 28.8937 58.47 29.4645 59.0471 30.244C59.6243 31.0234 59.9297 31.9517 59.9635 33.0288C59.9973 34.1059 59.7817 35.2053 59.3168 36.3272C58.9356 37.3376 58.3823 38.3255 57.6569 39.2911C57.0481 40.14 56.2571 41.0092 55.2838 41.8984C54.3105 42.7877 53.1184 43.5715 51.7076 44.25C52.5948 44.9649 53.4512 45.6435 54.2766 46.286C55.102 46.9285 55.8954 47.4201 56.6567 47.7609C57.5976 48.1723 58.5611 48.3505 59.547 48.2956C60.5329 48.2408 61.3196 48.1513 61.907 48.0272C62.0716 48.0016 62.2247 48.0106 62.3663 48.0542C62.508 48.0978 62.547 48.2393 62.4834 48.4788C62.331 48.7977 62.1204 49.1748 61.8514 49.6102C61.5824 50.0456 61.2464 50.4832 60.8433 50.923C60.4402 51.3629 59.9777 51.7463 59.4557 52.0735C58.9338 52.4006 58.3388 52.5832 57.6705 52.6215C56.8047 52.6905 55.9951 52.472 55.2417 51.9659C54.4882 51.4598 53.7558 50.8193 53.0445 50.0443C52.3332 49.2693 51.6587 48.4066 51.0211 47.4562C50.3835 46.5057 49.7666 45.6341 49.1705 44.8412C49.1347 45.0435 49.1194 45.1607 49.1244 45.1927C48.7955 46.7526 48.6758 48.0339 48.7654 49.0368C48.8549 50.0396 48.9677 50.76 49.1037 51.198L49.1113 51.2461C49.1213 51.3101 49.1211 51.4167 49.1107 51.5659C49.1004 51.7151 49.0204 51.8506 48.8709 51.9722C47.3914 52.8582 46.2068 53.3129 45.3171 53.3364C44.4274 53.3599 43.9442 52.8036 43.8674 51.6676C43.8581 51.1771 43.9744 50.4128 44.2165 49.3748C44.4585 48.3369 44.7741 47.2301 45.1632 46.0544C44.9986 46.08 44.7797 46.0813 44.5064 46.0581V46.0581ZM51.0318 39.2877C50.755 39.8883 50.5098 40.4758 50.2963 41.0501C50.0829 41.6245 49.8821 42.1723 49.6939 42.6935C49.8027 42.7422 49.895 42.7935 49.9709 42.8472C50.0467 42.9011 50.1415 42.9683 50.2553 43.049C50.5973 42.8647 50.9614 42.6605 51.3478 42.4364C51.7341 42.2124 52.1047 41.9416 52.4595 41.624C54.2917 40.1913 55.4961 38.8398 56.0726 37.5694C56.6491 36.299 56.9165 35.2079 56.8749 34.296C56.8963 33.5711 56.5809 32.956 55.9286 32.4506C55.2764 31.9452 54.2287 31.8211 52.7856 32.0782C53.2585 32.2999 53.568 32.6617 53.714 33.1638C53.8601 33.6659 53.6856 34.3818 53.1906 35.3115C53.1398 35.4178 53.0726 35.5266 52.9889 35.638C52.9052 35.7494 52.824 35.8768 52.7453 36.0203C52.7453 36.0203 52.7224 36.0894 52.6767 36.2277C52.5929 36.3391 52.4864 36.5197 52.3569 36.7694C52.2274 37.0192 52.0758 37.2887 51.902 37.5781C51.7281 37.8675 51.5638 38.1636 51.4089 38.4665C51.2541 38.7694 51.1284 39.0431 51.0318 39.2877V39.2877ZM45.6811 42.5793C45.0106 42.3883 44.4678 42.3661 44.0524 42.5126C43.6371 42.6592 43.4735 42.906 43.5615 43.2531C43.6116 43.5733 43.7974 43.7905 44.1186 43.9045C44.4399 44.0186 44.803 44.0769 45.208 44.0796C45.3067 44.0642 45.4067 44.0569 45.508 44.0575C45.6092 44.0583 45.7092 44.0509 45.8079 44.0355L46.2199 42.7907C46.144 42.7369 46.0542 42.7017 45.9505 42.685C45.8467 42.6683 45.7569 42.6331 45.6811 42.5793V42.5793ZM65.733 33.7645C65.9062 33.8088 66.0566 33.8722 66.1841 33.9546C66.3117 34.0371 66.4679 34.1487 66.6529 34.2895C66.8827 34.5227 67.0699 34.8183 67.2143 35.1762C67.3587 35.5341 67.4628 35.9051 67.5264 36.2891C67.5902 36.6732 67.6189 37.0451 67.6125 37.405C67.6061 37.7648 67.5837 38.0614 67.5451 38.2946C67.7805 38.2987 68.0304 38.2847 68.2949 38.2526C68.5264 38.2245 68.7962 38.1673 69.1045 38.0809C69.4127 37.9945 69.7388 37.8488 70.0829 37.6439C70.3065 37.5514 70.4699 37.5153 70.573 37.5354C70.647 37.5918 70.6987 37.7405 70.7282 37.9818C70.7577 38.2231 70.6996 38.4341 70.5539 38.6151C70.2256 38.9487 69.8398 39.2241 69.3965 39.4411C68.9241 39.6942 68.3903 39.857 67.7952 39.9292C67.5637 39.9573 67.3964 39.9613 67.2933 39.9411L67.2177 40.1462C67.1925 40.2145 67.1682 40.2909 67.145 40.3753C67.1218 40.4598 67.0995 40.5523 67.0782 40.6528C66.9601 41.0589 66.7555 41.5816 66.4645 42.2208C66.1736 42.8601 65.7887 43.4862 65.3099 44.0993C64.8312 44.7124 64.2497 45.24 63.5655 45.6821C62.8813 46.1243 62.0704 46.3533 61.1328 46.3691C60.2573 46.3447 59.6222 46.0219 59.2276 45.4005C58.8328 44.7792 58.6227 44.0212 58.5973 43.1265C58.5718 42.2318 58.6903 41.2789 58.9526 40.2677C59.2149 39.2565 59.5818 38.3468 60.0536 37.5387C60.2205 37.2573 60.404 36.9739 60.604 36.6884C60.804 36.403 61.0205 36.1155 61.2536 35.8261C61.4323 35.6411 61.668 35.4412 61.9605 35.2261C62.253 35.0111 62.5287 35.0021 62.7877 35.1992C62.9278 35.2475 63.0111 35.3109 63.0374 35.3893C63.0638 35.4677 63.0809 35.5391 63.0888 35.6034C63.3637 34.558 63.9105 33.953 64.7293 33.7883L65.0765 33.7462C65.341 33.7141 65.5598 33.7202 65.733 33.7645V33.7645ZM64.752 40.1516C64.8394 40.043 64.8811 39.9727 64.8772 39.9405C64.667 39.8681 64.4694 39.7615 64.2844 39.6207C64.1034 39.5121 63.9257 39.3622 63.7513 39.1712C63.577 38.9802 63.4205 38.7298 63.282 38.4201C63.2293 38.2633 63.1746 38.0904 63.1179 37.9014C63.0613 37.7124 63.0192 37.5053 62.9917 37.2801C62.9468 37.1876 62.9457 37.0409 62.9882 36.8398C62.9685 36.679 62.9674 36.5322 62.9847 36.3995C63.0021 36.2668 63.0174 36.1181 63.0308 35.9532C62.9844 36.1221 62.8611 36.3492 62.6611 36.6347C62.5855 36.8397 62.4914 37.0307 62.3788 37.2076C62.2993 37.3805 62.2052 37.5715 62.0965 37.7805C61.9878 37.9895 61.8957 38.1966 61.82 38.4017C61.7192 38.6751 61.6243 38.9967 61.5353 39.3666C61.4463 39.7365 61.3632 40.1547 61.286 40.6211C61.1836 41.1559 61.1482 41.6906 61.18 42.2255C61.2118 42.7603 61.4651 43.0478 61.9398 43.0882C62.2453 43.1164 62.5641 42.9798 62.8964 42.6783C63.2287 42.3768 63.5094 42.0652 63.7385 41.7436C64.0338 41.414 64.3716 40.8833 64.752 40.1516V40.1516ZM65.5718 37.7995C65.7325 37.1924 65.7464 36.6194 65.6134 36.0805C65.4805 35.5417 65.2837 35.3044 65.0231 35.3687C64.7625 35.4329 64.6125 35.647 64.5731 36.0109C64.5337 36.3748 64.5667 36.7136 64.6721 37.0273C64.7366 37.2806 64.913 37.4877 65.2011 37.6486C65.3451 37.7291 65.4687 37.7794 65.5718 37.7995ZM71.9269 39.1579C71.9011 39.226 71.902 39.3075 71.9295 39.4022C71.957 39.4969 71.9579 39.5784 71.9322 39.6465C71.8658 39.9475 71.8086 40.3291 71.7606 40.7911C71.7126 41.2531 71.6995 41.7275 71.7214 42.2142C71.7432 42.701 71.8055 43.175 71.9082 43.6363C72.011 44.0976 72.18 44.478 72.4152 44.7776C72.496 44.8989 72.4978 45.0618 72.4205 45.2662C72.3652 45.3703 72.2889 45.436 72.1915 45.4633C72.094 45.4906 72.0122 45.508 71.946 45.5155C71.8099 45.4983 71.615 45.4795 71.3613 45.4592C71.1076 45.439 70.841 45.3794 70.5615 45.2805C70.2821 45.1816 69.9972 45.0344 69.7068 44.8389C69.4163 44.6433 69.183 44.3599 69.0066 43.9884C68.8707 43.6776 68.7624 43.3148 68.6817 42.9C68.601 42.4851 68.5524 42.0584 68.5361 41.62C68.5198 41.1815 68.5301 40.7564 68.567 40.3445C68.604 39.9327 68.6391 39.5781 68.6723 39.2808C68.6908 39.1483 68.748 38.7668 68.8438 38.1363C68.9398 37.5058 69.0716 36.7489 69.2393 35.8657C69.407 34.9825 69.6079 34.0221 69.8419 32.9847C70.0759 31.9472 70.3485 30.9544 70.6597 30.006C70.9708 29.0577 71.3031 28.2211 71.6565 27.4963C72.0098 26.7715 72.4035 26.2541 72.8376 25.9442C72.8339 25.912 72.8947 25.8562 73.0197 25.7769C73.1485 25.7297 73.2937 25.6807 73.4555 25.6298C73.6174 25.5789 73.8307 25.5385 74.0955 25.5086C74.1617 25.5011 74.2536 25.4989 74.3713 25.502C74.4889 25.505 74.6324 25.5132 74.8015 25.5267C74.9412 25.5762 75.2216 25.6832 75.6426 25.8476C76.0636 26.012 76.3364 26.3481 76.4612 26.8558C76.4759 26.9847 76.4244 27.121 76.3066 27.2647C76.2772 27.3006 76.2404 27.3455 76.1962 27.3995C76.1521 27.4534 76.1006 27.5162 76.0417 27.5882C75.8872 27.7034 75.6314 28.1074 75.2744 28.8C74.9173 29.4926 74.5299 30.3598 74.112 31.4017C73.6942 32.4437 73.2827 33.6153 72.8776 34.9167C72.4725 36.2181 72.1795 37.5476 71.9987 38.9052C71.9729 38.9733 71.9609 39.0155 71.9628 39.0316C71.9646 39.0477 71.9526 39.0898 71.9269 39.1579V39.1579ZM77.4224 38.6171C77.3952 38.6846 77.3942 38.766 77.4197 38.8614C77.4451 38.9567 77.4442 39.0381 77.4169 39.1057C77.344 39.4052 77.2785 39.7854 77.2203 40.2462C77.1621 40.7071 77.1386 41.181 77.1497 41.6681C77.1608 42.1553 77.2127 42.6305 77.3053 43.094C77.3978 43.5574 77.5584 43.9414 77.787 44.2461C77.8652 44.3692 77.8633 44.532 77.7816 44.7347C77.7241 44.8375 77.6463 44.9015 77.5482 44.9267C77.4502 44.9519 77.368 44.9675 77.3017 44.9736C77.166 44.9533 76.9716 44.9303 76.7184 44.9045C76.4651 44.8787 76.1999 44.8133 75.9227 44.7083C75.6455 44.6034 75.3639 44.45 75.0779 44.2482C74.7918 44.0464 74.5647 43.7579 74.3966 43.3827C74.2675 43.069 74.1673 42.7039 74.0957 42.2873C74.0241 41.8708 73.985 41.4432 73.9783 41.0045C73.9716 40.5658 73.9913 40.141 74.0373 39.73C74.0833 39.3191 74.1262 38.9654 74.1659 38.6689C74.1873 38.5368 74.2529 38.1566 74.3626 37.5284C74.4724 36.9001 74.6208 36.1463 74.8079 35.267C74.995 34.3876 75.217 33.4319 75.4737 32.3998C75.7305 31.3677 76.0248 30.381 76.3568 29.4397C76.6887 28.4984 77.0393 27.6693 77.4085 26.9524C77.7778 26.2354 78.1828 25.7268 78.6236 25.4264C78.6206 25.3942 78.6825 25.3397 78.8093 25.2631C78.939 25.2188 79.0854 25.173 79.2483 25.1256C79.4112 25.0783 79.6253 25.0425 79.8907 25.0184C79.9571 25.0124 80.049 25.0122 80.1666 25.0179C80.2842 25.0235 80.4274 25.0349 80.5962 25.0521C80.7348 25.1046 81.0127 25.2176 81.43 25.3912C81.8472 25.5648 82.1127 25.9068 82.2263 26.4171C82.2381 26.5462 82.1836 26.6814 82.0627 26.8225C82.0324 26.8578 81.9947 26.9019 81.9494 26.9548C81.904 27.0077 81.8512 27.0695 81.7907 27.1401C81.6337 27.252 81.3691 27.6502 80.997 28.3349C80.6248 29.0195 80.2183 29.8781 79.7777 30.9106C79.337 31.9432 78.8998 33.1055 78.4662 34.3978C78.0326 35.69 77.7104 37.0128 77.4997 38.3661C77.4725 38.4337 77.4596 38.4755 77.4611 38.4917C77.4626 38.5078 77.4497 38.5496 77.4224 38.6172V38.6171V38.6171Z" fill="#0D4927"/>
<path fill-rule="evenodd" clip-rule="evenodd" d="M43.7445 18.9541C43.9984 18.9541 44.2499 19.0024 44.4845 19.0962C44.7191 19.19 44.9322 19.3274 45.1118 19.5008C45.2913 19.6741 45.4337 19.8799 45.5309 20.1063C45.6281 20.3328 45.6781 20.5755 45.6781 20.8206C45.6781 21.1897 45.5647 21.5506 45.3522 21.8575C45.1397 22.1645 44.8377 22.4037 44.4844 22.545C44.1311 22.6862 43.7423 22.7232 43.3672 22.6512C42.9921 22.5792 42.6476 22.4014 42.3772 22.1403C42.1068 21.8793 41.9226 21.5467 41.848 21.1847C41.7734 20.8226 41.8117 20.4473 41.9581 20.1063C42.1044 19.7652 42.3523 19.4737 42.6702 19.2686C42.9882 19.0635 43.3621 18.9541 43.7445 18.9541V18.9541Z" fill="#F24141"/>
<path fill-rule="evenodd" clip-rule="evenodd" d="M43.019 19.539C43.0816 19.5139 43.1475 19.4988 43.2129 19.4946C43.2784 19.4904 43.3421 19.4971 43.4005 19.5144C43.4589 19.5317 43.5108 19.5592 43.5532 19.5953C43.5956 19.6315 43.6277 19.6756 43.6477 19.7251C43.6778 19.7997 43.6793 19.8838 43.6519 19.9668C43.6246 20.0498 43.5697 20.1279 43.4941 20.1913C43.4186 20.2548 43.3258 20.3006 43.2275 20.3231C43.1292 20.3456 43.0298 20.3437 42.9418 20.3177C42.8539 20.2917 42.7814 20.2426 42.7335 20.1769C42.6856 20.1111 42.6644 20.0315 42.6727 19.9482C42.6809 19.8648 42.7183 19.7814 42.7799 19.7086C42.8415 19.6358 42.9247 19.5767 43.019 19.539V19.539Z" fill="white"/>
<path fill-rule="evenodd" clip-rule="evenodd" d="M38.1622 18.1541C38.4155 18.168 38.6635 18.2276 38.8921 18.3294C39.1206 18.4312 39.3253 18.5732 39.4943 18.7473C39.6633 18.9215 39.7934 19.1244 39.8772 19.3444C39.961 19.5644 39.9967 19.7972 39.9825 20.0295C39.961 20.3795 39.8269 20.7153 39.5971 20.9946C39.3673 21.2739 39.0522 21.4842 38.6915 21.5987C38.3309 21.7132 37.9409 21.7269 37.5709 21.6381C37.201 21.5492 36.8676 21.3618 36.6131 21.0995C36.3585 20.8372 36.1942 20.5119 36.1408 20.1645C36.0874 19.8172 36.1474 19.4636 36.3133 19.1483C36.4791 18.833 36.7432 18.5703 37.0724 18.3933C37.4015 18.2164 37.7807 18.1331 38.1622 18.1541V18.1541Z" fill="#F24141"/>
<path fill-rule="evenodd" clip-rule="evenodd" d="M37.3157 18.7134C37.3724 18.6776 37.4341 18.6505 37.4974 18.6336C37.5607 18.6166 37.6243 18.6102 37.6847 18.6147C37.745 18.6192 37.8009 18.6345 37.8491 18.6598C37.8973 18.6851 37.9369 18.7198 37.9656 18.7619C38.0088 18.8254 38.0258 18.9035 38.0144 18.9862C38.003 19.069 37.9636 19.1527 37.9014 19.2268C37.8392 19.301 37.7568 19.3621 37.6647 19.4026C37.5726 19.4431 37.475 19.4611 37.3841 19.4543C37.2932 19.4475 37.2132 19.4163 37.1541 19.3645C37.0951 19.3128 37.0597 19.2428 37.0524 19.1635C37.045 19.0842 37.0662 18.9991 37.113 18.919C37.1599 18.8389 37.2305 18.7674 37.3157 18.7134V18.7134Z" fill="white"/>
<path fill-rule="evenodd" clip-rule="evenodd" d="M43.6244 22.5285C44.1372 22.5285 44.629 22.7252 44.9917 23.0752C45.3543 23.4252 45.558 23.9 45.558 24.395C45.558 24.7642 45.4446 25.125 45.2321 25.432C45.0197 25.7389 44.7177 25.9781 44.3644 26.1194C44.011 26.2607 43.6223 26.2976 43.2472 26.2256C42.8721 26.1536 42.5276 25.9758 42.2571 25.7148C41.9867 25.4538 41.8026 25.1212 41.728 24.7591C41.6533 24.3971 41.6916 24.0218 41.838 23.6807C41.9843 23.3397 42.2322 23.0482 42.5501 22.8431C42.8681 22.638 43.242 22.5285 43.6244 22.5285V22.5285Z" fill="#F24141"/>
<path fill-rule="evenodd" clip-rule="evenodd" d="M42.8989 23.1134C42.9615 23.0883 43.0274 23.0732 43.0929 23.069C43.1583 23.0648 43.2221 23.0715 43.2804 23.0888C43.3388 23.1061 43.3907 23.1336 43.4331 23.1698C43.4755 23.2059 43.5076 23.25 43.5276 23.2995C43.5577 23.3741 43.5592 23.4582 43.5319 23.5412C43.5045 23.6242 43.4496 23.7023 43.3741 23.7658C43.2985 23.8292 43.2057 23.875 43.1074 23.8975C43.0091 23.92 42.9097 23.9181 42.8218 23.8921C42.7338 23.8661 42.6613 23.8171 42.6134 23.7513C42.5655 23.6855 42.5444 23.6059 42.5526 23.5226C42.5609 23.4392 42.5982 23.3559 42.6598 23.283C42.7215 23.2102 42.8047 23.1512 42.8989 23.1134V23.1134Z" fill="white"/>
<path fill-rule="evenodd" clip-rule="evenodd" d="M41.0159 20.9406C41.2692 20.9546 41.5172 21.0141 41.7457 21.1159C41.9743 21.2177 42.1789 21.3597 42.348 21.5339C42.517 21.708 42.6471 21.9109 42.7309 22.1309C42.8146 22.3509 42.8504 22.5837 42.8361 22.8161C42.8147 23.166 42.6806 23.5019 42.4508 23.7812C42.221 24.0605 41.9059 24.2707 41.5452 24.3852C41.1845 24.4998 40.7946 24.5135 40.4246 24.4246C40.0547 24.3358 39.7213 24.1484 39.4668 23.8861C39.2122 23.6238 39.0478 23.2984 38.9945 22.9511C38.9411 22.6038 39.0011 22.2501 39.1669 21.9349C39.3327 21.6196 39.5969 21.3569 39.926 21.1799C40.2551 21.0029 40.6344 20.9197 41.0159 20.9406V20.9406Z" fill="#F24141"/>
<path fill-rule="evenodd" clip-rule="evenodd" d="M40.1694 21.5C40.2838 21.4277 40.4165 21.3922 40.5384 21.4013C40.6602 21.4104 40.7613 21.4633 40.8193 21.5485C40.8625 21.612 40.8795 21.69 40.8681 21.7728C40.8567 21.8555 40.8174 21.9393 40.7551 22.0134C40.6929 22.0875 40.6105 22.1487 40.5184 22.1892C40.4263 22.2297 40.3287 22.2477 40.2378 22.2409C40.1469 22.2341 40.0669 22.2029 40.0078 22.1511C39.9488 22.0993 39.9134 22.0294 39.9061 21.9501C39.8987 21.8708 39.9199 21.7857 39.9667 21.7056C40.0136 21.6255 40.0842 21.5539 40.1694 21.5V21.5Z" fill="white"/>
<path fill-rule="evenodd" clip-rule="evenodd" d="M50.2675 16.7616C50.7803 16.7616 51.2721 16.9583 51.6348 17.3083C51.9974 17.6584 52.2011 18.1331 52.2011 18.6281C52.2011 18.9973 52.0877 19.3582 51.8752 19.6651C51.6628 19.972 51.3608 20.2113 51.0074 20.3525C50.6541 20.4938 50.2653 20.5308 49.8903 20.4588C49.5152 20.3867 49.1706 20.209 48.9002 19.9479C48.6298 19.6869 48.4457 19.3543 48.371 18.9923C48.2964 18.6302 48.3347 18.2549 48.4811 17.9139C48.6274 17.5728 48.8753 17.2813 49.1932 17.0762C49.5112 16.8711 49.8851 16.7616 50.2675 16.7616Z" fill="#F24141"/>
<path fill-rule="evenodd" clip-rule="evenodd" d="M49.542 17.3465C49.6046 17.3214 49.6705 17.3064 49.7359 17.3021C49.8014 17.2979 49.8651 17.3047 49.9235 17.3219C49.9819 17.3392 50.0338 17.3667 50.0762 17.4029C50.1186 17.439 50.1507 17.4831 50.1707 17.5326C50.2008 17.6072 50.2023 17.6913 50.1749 17.7743C50.1476 17.8573 50.0927 17.9354 50.0171 17.9989C49.9416 18.0623 49.8488 18.1082 49.7505 18.1307C49.6522 18.1531 49.5528 18.1513 49.4648 18.1252C49.3769 18.0992 49.3044 18.0502 49.2565 17.9844C49.2086 17.9186 49.1874 17.8391 49.1957 17.7557C49.2039 17.6723 49.2413 17.589 49.3029 17.5162C49.3645 17.4433 49.4477 17.3843 49.542 17.3465V17.3465Z" fill="white"/>
<path fill-rule="evenodd" clip-rule="evenodd" d="M48.281 21.322C48.5343 21.3359 48.7823 21.3955 49.0109 21.4973C49.2394 21.5991 49.4441 21.7411 49.6131 21.9153C49.7821 22.0894 49.9122 22.2923 49.996 22.5123C50.0798 22.7323 50.1155 22.9651 50.1013 23.1974C50.0798 23.5474 49.9457 23.8832 49.7159 24.1625C49.4861 24.4419 49.171 24.6521 48.8103 24.7666C48.4497 24.8811 48.0597 24.8948 47.6898 24.806C47.3198 24.7171 46.9865 24.5297 46.7319 24.2674C46.4773 24.0052 46.313 23.6798 46.2596 23.3325C46.2062 22.9852 46.2662 22.6315 46.4321 22.3162C46.5979 22.001 46.862 21.7382 47.1912 21.5613C47.5203 21.3843 47.8995 21.301 48.281 21.322V21.322Z" fill="#F24141"/>
<path fill-rule="evenodd" clip-rule="evenodd" d="M47.4345 21.8813C47.4912 21.8455 47.5529 21.8184 47.6162 21.8015C47.6795 21.7845 47.7431 21.7781 47.8035 21.7826C47.8638 21.7871 47.9197 21.8024 47.9679 21.8277C48.0161 21.853 48.0557 21.8877 48.0844 21.9298C48.1276 21.9933 48.1446 22.0714 48.1332 22.1541C48.1218 22.2369 48.0824 22.3206 48.0202 22.3947C47.9579 22.4688 47.8756 22.53 47.7835 22.5705C47.6914 22.611 47.5938 22.629 47.5029 22.6222C47.412 22.6154 47.332 22.5842 47.2729 22.5324C47.2139 22.4807 47.1785 22.4107 47.1712 22.3314C47.1638 22.2521 47.185 22.167 47.2318 22.0869C47.2787 22.0068 47.3493 21.9353 47.4345 21.8813V21.8813Z" fill="white"/>
<path fill-rule="evenodd" clip-rule="evenodd" d="M43.6297 12.8915C44.0541 12.8915 44.4611 13.0542 44.7611 13.3438C45.0612 13.6335 45.2298 14.0264 45.2298 14.436C45.2298 14.7415 45.1359 15.0401 44.9601 15.2941C44.7843 15.5481 44.5344 15.7461 44.242 15.863C43.9497 15.9799 43.6279 16.0104 43.3176 15.9508C43.0072 15.8913 42.7221 15.7442 42.4983 15.5281C42.2745 15.3121 42.1221 15.0369 42.0604 14.7373C41.9987 14.4377 42.0303 14.1272 42.1514 13.8449C42.2726 13.5627 42.4776 13.3215 42.7408 13.1518C43.0039 12.982 43.3132 12.8915 43.6297 12.8915Z" fill="#F24141"/>
<path fill-rule="evenodd" clip-rule="evenodd" d="M43.0294 13.3755C43.0812 13.3547 43.1357 13.3422 43.1899 13.3387C43.244 13.3353 43.2968 13.3408 43.3451 13.3551C43.3934 13.3694 43.4363 13.3922 43.4714 13.4221C43.5065 13.452 43.5331 13.4885 43.5496 13.5295C43.5745 13.5912 43.5758 13.6608 43.5531 13.7295C43.5305 13.7981 43.4851 13.8628 43.4226 13.9153C43.36 13.9678 43.2833 14.0057 43.2019 14.0243C43.1206 14.0429 43.0383 14.0414 42.9656 14.0198C42.8928 13.9983 42.8328 13.9578 42.7932 13.9033C42.7535 13.8489 42.736 13.783 42.7428 13.7141C42.7497 13.6451 42.7805 13.5761 42.8315 13.5158C42.8825 13.4556 42.9514 13.4067 43.0294 13.3755V13.3755Z" fill="white"/>
<path fill-rule="evenodd" clip-rule="evenodd" d="M37.5848 13.1097C37.8078 13.122 38.0262 13.1744 38.2274 13.264C38.4287 13.3536 38.6088 13.4787 38.7577 13.632C38.9065 13.7854 39.021 13.964 39.0948 14.1577C39.1685 14.3514 39.2 14.5564 39.1875 14.7609C39.1686 15.0691 39.0505 15.3648 38.8482 15.6107C38.6459 15.8566 38.3684 16.0417 38.0509 16.1425C37.7333 16.2434 37.39 16.2554 37.0642 16.1772C36.7385 16.099 36.445 15.934 36.2209 15.703C35.9967 15.4721 35.852 15.1856 35.805 14.8798C35.758 14.574 35.8109 14.2627 35.9569 13.9851C36.1029 13.7075 36.3355 13.4762 36.6252 13.3203C36.915 13.1645 37.249 13.0912 37.5848 13.1097V13.1097Z" fill="#F24141"/>
<path fill-rule="evenodd" clip-rule="evenodd" d="M36.8396 13.6022C36.9403 13.5385 37.0571 13.5073 37.1644 13.5153C37.2717 13.5233 37.3607 13.5699 37.4117 13.6448C37.4498 13.7008 37.4647 13.7695 37.4547 13.8423C37.4446 13.9152 37.41 13.9889 37.3552 14.0542C37.3004 14.1194 37.2279 14.1733 37.1468 14.209C37.0657 14.2446 36.9797 14.2605 36.8997 14.2545C36.8197 14.2485 36.7492 14.221 36.6972 14.1754C36.6453 14.1299 36.6141 14.0683 36.6076 13.9984C36.6012 13.9286 36.6198 13.8537 36.6611 13.7832C36.7024 13.7126 36.7645 13.6497 36.8396 13.6022V13.6022Z" fill="white"/>
<path fill-rule="evenodd" clip-rule="evenodd" d="M31.6514 21.2986C32.1642 21.2986 32.6561 21.4953 33.0187 21.8453C33.3813 22.1953 33.585 22.6701 33.585 23.1651C33.585 23.5343 33.4716 23.8951 33.2591 24.2021C33.0467 24.509 32.7447 24.7482 32.3914 24.8895C32.038 25.0308 31.6493 25.0677 31.2742 24.9957C30.8991 24.9237 30.5546 24.7459 30.2841 24.4849C30.0137 24.2239 29.8296 23.8913 29.755 23.5292C29.6803 23.1672 29.7186 22.7919 29.865 22.4508C30.0113 22.1098 30.2592 21.8183 30.5772 21.6132C30.8951 21.4081 31.269 21.2986 31.6514 21.2986V21.2986Z" fill="#F24141"/>
<path fill-rule="evenodd" clip-rule="evenodd" d="M30.9259 21.8835C30.9885 21.8584 31.0544 21.8433 31.1198 21.8391C31.1853 21.8349 31.249 21.8416 31.3074 21.8589C31.3658 21.8762 31.4177 21.9037 31.4601 21.9398C31.5025 21.976 31.5346 22.0201 31.5546 22.0696C31.5847 22.1442 31.5862 22.2283 31.5588 22.3113C31.5315 22.3943 31.4766 22.4724 31.401 22.5358C31.3255 22.5993 31.2327 22.6451 31.1344 22.6676C31.0361 22.6901 30.9367 22.6882 30.8487 22.6622C30.7608 22.6362 30.6883 22.5872 30.6404 22.5214C30.5925 22.4556 30.5713 22.376 30.5796 22.2927C30.5879 22.2093 30.6252 22.126 30.6868 22.0531C30.7484 21.9803 30.8316 21.9213 30.9259 21.8835V21.8835Z" fill="white"/>
<path fill-rule="evenodd" clip-rule="evenodd" d="M26.184 21.5172C26.6955 21.5454 27.1747 21.7588 27.516 22.1105C27.8574 22.4622 28.033 22.9234 28.0042 23.3927C27.9828 23.7426 27.8487 24.0785 27.6189 24.3578C27.3891 24.6371 27.0739 24.8473 26.7133 24.9618C26.3526 25.0764 25.9627 25.0901 25.5927 25.0012C25.2227 24.9124 24.8894 24.7249 24.6348 24.4627C24.3803 24.2004 24.2159 23.875 24.1625 23.5277C24.1092 23.1804 24.1692 22.8267 24.335 22.5114C24.5008 22.1962 24.765 21.9334 25.0941 21.7565C25.4232 21.5795 25.8025 21.4962 26.184 21.5172V21.5172Z" fill="#F24141"/>
<path fill-rule="evenodd" clip-rule="evenodd" d="M25.3375 22.0766C25.3942 22.0408 25.4559 22.0136 25.5192 21.9967C25.5825 21.9797 25.6461 21.9733 25.7065 21.9778C25.7668 21.9823 25.8227 21.9977 25.8709 22.0229C25.9191 22.0482 25.9587 22.0829 25.9874 22.125C26.0306 22.1885 26.0476 22.2666 26.0362 22.3494C26.0247 22.4321 25.9854 22.5158 25.9232 22.59C25.8609 22.6641 25.7786 22.7252 25.6865 22.7657C25.5944 22.8062 25.4968 22.8242 25.4059 22.8174C25.315 22.8107 25.235 22.7794 25.1759 22.7276C25.1169 22.6759 25.0815 22.6059 25.0741 22.5266C25.0668 22.4473 25.0879 22.3622 25.1348 22.2821C25.1817 22.202 25.2523 22.1305 25.3375 22.0766V22.0766Z" fill="white"/>
<path fill-rule="evenodd" clip-rule="evenodd" d="M39.1109 22.9454C39.3648 22.9454 39.6162 22.9937 39.8508 23.0875C40.0854 23.1813 40.2986 23.3188 40.4781 23.4921C40.6577 23.6654 40.8001 23.8712 40.8973 24.0976C40.9944 24.3241 41.0445 24.5668 41.0445 24.8119C41.0445 25.181 40.9311 25.5419 40.7186 25.8489C40.5061 26.1558 40.2041 26.395 39.8508 26.5363C39.4975 26.6776 39.1087 26.7145 38.7336 26.6425C38.3585 26.5705 38.014 26.3927 37.7436 26.1317C37.4732 25.8707 37.289 25.5381 37.2144 25.176C37.1398 24.814 37.1781 24.4387 37.3244 24.0976C37.4708 23.7566 37.7186 23.4651 38.0366 23.26C38.3546 23.0549 38.7284 22.9454 39.1109 22.9454V22.9454Z" fill="#F24141"/>
<path fill-rule="evenodd" clip-rule="evenodd" d="M38.3854 23.5303C38.5118 23.4796 38.649 23.4708 38.7669 23.5057C38.8848 23.5406 38.9737 23.6164 39.0141 23.7164C39.0442 23.791 39.0456 23.8751 39.0183 23.9581C38.991 24.0411 38.9361 24.1192 38.8605 24.1826C38.7849 24.2461 38.6921 24.2919 38.5938 24.3144C38.4955 24.3369 38.3961 24.335 38.3082 24.309C38.2203 24.283 38.1478 24.234 38.0999 24.1682C38.052 24.1024 38.0308 24.0228 38.0391 23.9395C38.0473 23.8561 38.0846 23.7727 38.1463 23.6999C38.2079 23.6271 38.2911 23.568 38.3854 23.5303V23.5303Z" fill="white"/>
<path fill-rule="evenodd" clip-rule="evenodd" d="M24.521 14.8534C24.7341 14.8652 24.9427 14.9153 25.135 15.0009C25.3273 15.0865 25.4994 15.206 25.6416 15.3525C25.7838 15.499 25.8933 15.6697 25.9637 15.8548C26.0342 16.0399 26.0643 16.2357 26.0523 16.4312C26.0343 16.7256 25.9214 17.0081 25.7281 17.2431C25.5348 17.4781 25.2697 17.6549 24.9663 17.7513C24.6628 17.8476 24.3348 17.8592 24.0235 17.7844C23.7123 17.7097 23.4319 17.552 23.2177 17.3314C23.0035 17.1107 22.8653 16.837 22.8204 16.5448C22.7755 16.2526 22.826 15.9551 22.9655 15.6898C23.105 15.4246 23.3272 15.2036 23.6041 15.0547C23.881 14.9058 24.2 14.8358 24.521 14.8534V14.8534Z" fill="#F24141"/>
<path fill-rule="evenodd" clip-rule="evenodd" d="M23.8089 15.324C23.9051 15.2632 24.0167 15.2333 24.1193 15.241C24.2218 15.2486 24.3068 15.2931 24.3556 15.3648C24.3919 15.4182 24.4062 15.4839 24.3966 15.5535C24.387 15.6231 24.3539 15.6935 24.3016 15.7559C24.2492 15.8182 24.1799 15.8697 24.1024 15.9038C24.025 15.9378 23.9428 15.953 23.8664 15.9473C23.7899 15.9416 23.7226 15.9153 23.6729 15.8717C23.6232 15.8282 23.5934 15.7693 23.5873 15.7026C23.5811 15.6359 23.5989 15.5643 23.6383 15.4969C23.6778 15.4296 23.7371 15.3694 23.8089 15.324V15.324Z" fill="white"/>
<path fill-rule="evenodd" clip-rule="evenodd" d="M21.7001 23.8792C22.1304 23.9029 22.5335 24.0824 22.8207 24.3783C23.1079 24.6742 23.2556 25.0622 23.2314 25.457C23.2133 25.7514 23.1005 26.0339 22.9072 26.2689C22.7138 26.5039 22.4487 26.6807 22.1453 26.7771C21.8419 26.8734 21.5138 26.885 21.2026 26.8102C20.8913 26.7355 20.6109 26.5778 20.3967 26.3571C20.1826 26.1365 20.0443 25.8628 19.9994 25.5706C19.9545 25.2784 20.005 24.9809 20.1445 24.7156C20.284 24.4504 20.5063 24.2294 20.7832 24.0805C21.06 23.9316 21.3791 23.8616 21.7001 23.8792V23.8792Z" fill="#F24141"/>
<path fill-rule="evenodd" clip-rule="evenodd" d="M20.9879 24.3498C21.0356 24.3197 21.0875 24.2969 21.1408 24.2826C21.194 24.2684 21.2475 24.263 21.2983 24.2668C21.3491 24.2705 21.3961 24.2834 21.4366 24.3047C21.4772 24.3259 21.5105 24.3551 21.5346 24.3906C21.571 24.444 21.5853 24.5097 21.5757 24.5793C21.5661 24.6489 21.533 24.7193 21.4806 24.7817C21.4283 24.844 21.359 24.8955 21.2815 24.9296C21.204 24.9636 21.1219 24.9788 21.0454 24.9731C20.969 24.9674 20.9017 24.9411 20.852 24.8975C20.8023 24.854 20.7725 24.7951 20.7663 24.7284C20.7602 24.6617 20.778 24.5901 20.8174 24.5228C20.8568 24.4554 20.9162 24.3952 20.9879 24.3498V24.3498Z" fill="white"/>
<path fill-rule="evenodd" clip-rule="evenodd" d="M20.1877 38.2557C20.063 38.3309 19.9977 37.02 21.1255 35.1836C22.2532 33.3472 21.3454 35.7138 21.133 36.819C20.9206 37.9242 20.2398 38.3687 20.1877 38.2557Z" fill="white"/>
<path fill-rule="evenodd" clip-rule="evenodd" d="M59.457 41.1795C59.3197 41.0934 59.1721 39.8438 60.1416 38.2729C61.1111 36.702 60.3725 38.6344 60.1818 39.5435C59.9911 40.4527 59.5942 41.2656 59.457 41.1795V41.1795Z" fill="white"/>
<path fill-rule="evenodd" clip-rule="evenodd" d="M24.9765 37.8567C25.1846 38.2445 25.5225 37.7389 25.8166 37.2611C25.9406 37.0598 26.192 36.7343 26.1369 36.6176C26.082 36.5009 24.7683 37.469 24.9765 37.8567V37.8567Z" fill="white"/>
<path fill-rule="evenodd" clip-rule="evenodd" d="M36.7739 39.5126C35.5315 39.8321 34.8302 40.6607 34.8402 40.8055C34.8503 40.9502 35.5716 40.4111 36.834 39.8121" fill="white"/>
<path fill-rule="evenodd" clip-rule="evenodd" d="M45.4111 32.5762C46.8674 31.1967 48.3183 30.3926 48.6718 30.2916C49.0254 30.1907 48.2816 30.7928 47.4681 31.6092C46.6546 32.4256 45.7713 33.4562 45.3123 34.0931C44.8532 34.73 44.8184 34.9732 43.9467 34.209" fill="white"/>
<path fill-rule="evenodd" clip-rule="evenodd" d="M1.90146 39.2563C2.96658 38.0966 4.09355 37.4206 4.37915 37.3357C4.66472 37.2508 4.10893 37.757 3.51924 38.4434C2.92952 39.1298 2.30593 39.9963 1.99353 40.5317C1.68112 41.0672 1.67989 41.2716 0.858841 40.6291" fill="white"/>
<path fill-rule="evenodd" clip-rule="evenodd" d="M73.8533 26.4009C73.313 26.3836 72.4414 27.8948 71.8399 29.2815C71.2385 30.6682 70.9073 31.9304 70.823 32.4863C70.7388 33.0421 70.9015 32.8916 71.4099 31.6786C71.9184 30.4656 72.7725 28.1901 74.1846 26.7136" fill="white"/>
<path fill-rule="evenodd" clip-rule="evenodd" d="M79.5832 26.0995C79.0428 26.0822 78.1711 27.5934 77.5697 28.9801C76.9683 30.3668 76.6371 31.6291 76.5528 32.1849C76.4686 32.7408 76.6313 32.5902 77.1397 31.3772C77.6482 30.1642 78.5023 27.8887 79.9144 26.4122" fill="white"/>
<path fill-rule="evenodd" clip-rule="evenodd" d="M3.02074 64.5359C5.12304 68.0907 11.8381 77.1137 20.5143 81.4185C24.7215 83.5059 31.5449 85.67 38.7115 86.0113C49.5611 86.528 60.6627 83.1063 68.9801 76.0457C73.9379 71.8371 77.7245 66.4594 79.9451 61.847C84.8599 51.6384 84.5753 44.8927 84.5753 44.8927C82.0402 47.5693 80.4803 48.0504 77.789 49.4171C76.8495 54.1487 75.8146 63.2831 64.7307 72.7219C53.6467 82.1608 41.7002 81.4282 34.8311 80.7154C27.962 80.0025 21.893 76.7608 17.1102 73.0495C12.3357 69.3447 9.19723 65.2165 8.14367 63.5044C8.0792 63.5201 8.01463 63.5356 7.95003 63.5512C7.54546 63.6681 7.14622 63.761 6.73539 63.8324C5.43842 64.121 4.15832 64.3679 3.02074 64.5359V64.5359Z" fill="#0D4927"/>
</g>
<defs>
<clipPath id="clip0">
<rect width="85" height="86" fill="white"/>
</clipPath>
</defs>
</svg>
