<svg width="20" height="20" viewBox="0 0 20 20" fill="none" xmlns="http://www.w3.org/2000/svg">
    <path d="M3.66667 17.3333H12.8487L13.3847 19.0927C13.5241 19.538 13.8938 19.8727 14.3507 19.9673C14.8076 20.0619 15.2799 19.9015 15.5846 19.5481C15.8894 19.1948 15.9787 18.7041 15.818 18.266L15.322 16.9327C15.9539 16.6158 16.4793 16.1209 16.8333 15.509L17.5487 17.0553C17.7474 17.4779 18.1597 17.7594 18.6256 17.7907C19.0916 17.822 19.5378 17.5982 19.7913 17.206C20.0448 16.8138 20.0656 16.315 19.8457 15.903L17.3333 11.236V3.66667C17.3309 1.64261 15.6907 0.00238783 13.6667 0H3.66667C1.64261 0.00238783 0.00238783 1.64261 0 3.66667V13.6667C0.00238783 15.6907 1.64261 17.3309 3.66667 17.3333ZM15.3333 7.52133L12.7757 2.77133C12.5634 2.37192 12.0713 2.21474 11.6668 2.41716C11.2624 2.61958 11.0932 3.10769 11.2857 3.517L15.3333 12.2667V13.6667C15.3332 14.2128 15.0643 14.7239 14.6143 15.0333L10.6143 4.28867C10.4604 3.86192 9.99347 3.63667 9.56369 3.78187C9.13391 3.92706 8.89923 4.38936 9.03567 4.822L12.239 15.3333H3.66667C2.74665 15.3322 2.0011 14.5867 2 13.6667V3.66667C2.0011 2.74665 2.74665 2.0011 3.66667 2H13.6667C14.5867 2.0011 15.3322 2.74665 15.3333 3.66667V7.52133ZM14.829 19.2943C14.6748 19.3517 14.5042 19.3453 14.3548 19.2765C14.2054 19.2077 14.0896 19.0821 14.033 18.9277L9.674 4.62767C9.64436 4.54041 9.69107 4.44564 9.77833 4.416C9.86559 4.38636 9.96036 4.43307 9.99 4.52033L14.1287 15.64L15.1927 18.5C15.3114 18.8198 15.1487 19.1753 14.829 19.2943ZM15.0883 16.307L14.855 15.6737C15.5545 15.2606 15.9876 14.5123 15.9973 13.7L16.469 14.7193C16.2184 15.3996 15.7272 15.9645 15.0883 16.307ZM19.0073 17.057C18.8629 17.1349 18.6934 17.1522 18.5363 17.105C18.3791 17.0578 18.2472 16.9499 18.1697 16.8053L11.8903 3.23667C11.8494 3.15382 11.8833 3.05346 11.9662 3.0125C12.049 2.97154 12.1494 3.00549 12.1903 3.08833L19.259 16.219C19.3371 16.3634 19.3545 16.533 19.3073 16.6903C19.26 16.8475 19.1521 16.9795 19.0073 17.057ZM0.666667 3.66667C0.668504 2.01057 2.01057 0.668504 3.66667 0.666667H13.6667C15.3228 0.668504 16.6648 2.01057 16.6667 3.66667V9.99767L16 8.75967V3.66667C15.9985 2.37861 14.9547 1.3348 13.6667 1.33333H3.66667C2.37861 1.3348 1.3348 2.37861 1.33333 3.66667V13.6667C1.3348 14.9547 2.37861 15.9985 3.66667 16H12.4423L12.6453 16.6667H3.66667C2.01057 16.6648 0.668504 15.3228 0.666667 13.6667V3.66667Z" fill="black"/>
    <path d="M5.66667 2.33331C4.19633 2.33331 3 3.23031 3 4.33331V6.33331C3 7.43631 4.19633 8.33331 5.66667 8.33331C7.137 8.33331 8.33333 7.43631 8.33333 6.33331V4.33331C8.33333 3.23031 7.137 2.33331 5.66667 2.33331ZM5.66667 2.99998C6.75067 2.99998 7.66667 3.61065 7.66667 4.33331C7.66667 5.05598 6.75067 5.66665 5.66667 5.66665C4.58267 5.66665 3.66667 5.05598 3.66667 4.33331C3.66667 3.61065 4.58267 2.99998 5.66667 2.99998ZM5.66667 7.66665C4.58267 7.66665 3.66667 7.05598 3.66667 6.33331V5.65165C4.2328 6.10632 4.9407 6.3476 5.66667 6.33331C6.39263 6.3476 7.10054 6.10632 7.66667 5.65165V6.33331C7.66667 7.05598 6.75067 7.66665 5.66667 7.66665Z" fill="black"/>
    <path d="M5.33333 4.33329H6C6.18409 4.33329 6.33333 4.18405 6.33333 3.99996C6.33333 3.81586 6.18409 3.66663 6 3.66663H5.33333C5.14924 3.66663 5 3.81586 5 3.99996C5 4.18405 5.14924 4.33329 5.33333 4.33329Z" fill="black"/>
    <path d="M5.66667 9C4.19633 9 3 9.897 3 11V13C3 14.103 4.19633 15 5.66667 15C7.137 15 8.33333 14.103 8.33333 13V11C8.33333 9.897 7.137 9 5.66667 9ZM5.66667 9.66667C6.75067 9.66667 7.66667 10.2773 7.66667 11C7.66667 11.7227 6.75067 12.3333 5.66667 12.3333C4.58267 12.3333 3.66667 11.7227 3.66667 11C3.66667 10.2773 4.58267 9.66667 5.66667 9.66667ZM5.66667 14.3333C4.58267 14.3333 3.66667 13.7227 3.66667 13V12.3183C4.2328 12.773 4.9407 13.0143 5.66667 13C6.39263 13.0143 7.10054 12.773 7.66667 12.3183V13C7.66667 13.7227 6.75067 14.3333 5.66667 14.3333Z" fill="black"/>
    <path d="M5.33333 11H6C6.18409 11 6.33333 10.8507 6.33333 10.6666C6.33333 10.4826 6.18409 10.3333 6 10.3333H5.33333C5.14924 10.3333 5 10.4826 5 10.6666C5 10.8507 5.14924 11 5.33333 11Z" fill="black"/>
</svg>
