<svg width="24" height="24" viewBox="0 0 24 24" fill="none" xmlns="http://www.w3.org/2000/svg">
<path d="M0 11.5C0 6.08 0 3.37 1.68 1.68C3.37 0 6.08 0 11.5 0H12.5C17.92 0 20.63 0 22.32 1.68C24 3.37 24 6.08 24 11.5V12.5C24 17.92 24 20.63 22.32 22.32C20.63 24 17.92 24 12.5 24H11.5C6.08 24 3.37 24 1.68 22.32C0 20.63 0 17.92 0 12.5V11.5Z" fill="#2787F5"/>
<path fill-rule="evenodd" clip-rule="evenodd" d="M6.50002 7.50001H4.75002C4.25002 7.50001 4.15002 7.74001 4.15002 8.00001C4.15002 8.46001 4.75002 10.76 6.91002 13.8C8.36002 15.87 10.4 17 12.25 17C13.36 17 13.5 16.75 13.5 16.32V14.75C13.5 14.25 13.6 14.15 13.96 14.15C14.22 14.15 14.66 14.28 15.7 15.28C16.89 16.47 17.08 17 17.75 17H19.5C20 17 20.25 16.75 20.1 16.26C19.95 15.76 19.38 15.06 18.63 14.21C18.23 13.72 17.61 13.21 17.43 12.95C17.17 12.61 17.23 12.46 17.43 12.17C17.43 12.17 19.56 9.17001 19.78 8.14001C19.89 7.77001 19.78 7.50001 19.25 7.50001H17.5C17.3364 7.49023 17.1739 7.53363 17.037 7.62374C16.9 7.71385 16.7958 7.84584 16.74 8.00001C16.74 8.00001 15.84 10.16 14.59 11.57C14.18 11.98 13.99 12.11 13.77 12.11C13.67 12.11 13.5 11.98 13.5 11.61V8.14001C13.5 7.70001 13.37 7.50001 13 7.50001H10.25C9.97002 7.50001 9.80002 7.70001 9.80002 7.90001C9.80002 8.32001 10.44 8.42001 10.5 9.60001V12.18C10.5 12.75 10.4 12.85 10.18 12.85C9.58002 12.85 8.14002 10.67 7.28002 8.18001C7.12002 7.70001 6.95002 7.50001 6.50002 7.50001V7.50001Z" fill="white"/>
</svg>
