<svg width="30" height="30" viewBox="0 0 30 30" fill="none" xmlns="http://www.w3.org/2000/svg">
<g clip-path="url(#clip0)">
<path d="M24.396 15.3429C24.396 14.2583 24.1603 13.2151 23.6953 12.2423C22.7851 10.3379 22.6481 8.22314 23.3096 6.28744C23.4451 5.8909 23.6584 5.49833 23.3866 5.11831C23.2498 4.92704 23.0278 4.81286 22.7924 4.81286H19.1537L19.446 3.39117C19.4911 3.17219 19.6177 2.9825 19.8026 2.85696L22.8204 0.80855C23.0212 0.672286 23.0735 0.399056 22.9373 0.198293C22.801 -0.00246981 22.5278 -0.0547842 22.327 0.0814793L19.3091 2.12988C18.9337 2.38472 18.6767 2.76978 18.5853 3.21419L18.2566 4.81286H13.7604L15.9687 2.60851C16.1005 2.47751 16.1738 2.29573 16.1699 2.10967C16.1661 1.92426 16.0855 1.74634 15.9491 1.62174C13.5081 -0.61132 9.7607 -0.528602 7.41762 1.81008C7.41745 1.81026 7.41733 1.81043 7.41716 1.81055C7.4171 1.81061 7.4171 1.81061 7.41704 1.81067C7.41698 1.81073 7.41692 1.81078 7.41686 1.81084C5.07402 4.15005 4.99154 7.8908 7.23034 10.3287C7.35523 10.4637 7.53274 10.5434 7.71722 10.5472C7.72196 10.5473 7.72665 10.5473 7.73139 10.5473C7.91154 10.5473 8.08705 10.4752 8.21535 10.3476L11.086 7.48242C11.3953 9.08858 11.1856 10.772 10.4688 12.3171C10.2993 12.6826 10.1599 13.0645 10.0544 13.4525C9.99081 13.6866 10.1291 13.928 10.3632 13.9917C10.5974 14.0552 10.8388 13.917 10.9024 13.6829C10.9949 13.3426 11.1172 13.0075 11.2659 12.6869C12.1824 10.7113 12.351 8.5287 11.7511 6.50561C11.6921 6.30672 11.5533 5.8957 11.4833 5.69148C11.6539 5.6503 17.8923 5.73472 18.0759 5.69148L17.3933 9.01107C16.9357 9.22801 16.5298 9.43375 15.9786 9.56398C15.2887 9.72696 14.57 9.72426 13.7814 9.55595C13.5817 9.5133 13.3719 9.5563 13.2054 9.674C13.0391 9.79151 12.9286 9.97482 12.9022 10.1769C12.7729 11.1658 12.4904 12.1348 12.0628 13.0572C11.7295 13.7768 11.5605 14.5459 11.5605 15.3432C11.5605 18.368 14.0453 20.8289 17.0995 20.8289C20.1537 20.8289 22.6385 18.368 22.6385 15.3432C22.6385 14.5227 22.4604 13.7344 22.1092 13C22.0017 12.7754 21.9016 12.5446 21.8115 12.314C21.7232 12.088 21.4683 11.9762 21.2425 12.0646C21.0164 12.1529 20.9047 12.4077 20.9931 12.6337C21.091 12.8843 21.1998 13.1352 21.3166 13.3792C21.6107 13.9942 21.7598 14.6549 21.7598 15.3432C21.7598 17.8834 19.6692 19.9502 17.0995 19.9502C14.5299 19.9502 12.4393 17.8835 12.4393 15.3432C12.4393 14.6743 12.5809 14.0295 12.8601 13.4266C13.3028 12.4718 13.6026 11.47 13.752 10.4465C14.6024 10.6083 15.4186 10.5992 16.1804 10.4193C16.5599 10.3298 16.8792 10.2106 17.1731 10.0824L15.9392 16.0834C15.8903 16.3211 16.0434 16.5533 16.281 16.6022C16.3109 16.6083 16.3407 16.6113 16.37 16.6113C16.5742 16.6113 16.7572 16.4682 16.7999 16.2603L18.1639 9.6266C18.5219 9.47458 18.9089 9.34646 19.4115 9.27892C19.6924 9.24131 19.9807 9.22689 20.27 9.23574C20.2899 9.68402 20.3392 10.135 20.4167 10.5782C20.4584 10.8172 20.686 10.9773 20.9252 10.9353C21.1642 10.8935 21.3241 10.6658 21.2823 10.4268C21.2041 9.97956 21.1573 9.52379 21.1433 9.07229C21.1314 8.68963 20.8334 8.38518 20.45 8.36397C20.0617 8.34259 19.6729 8.35735 19.2946 8.40796C18.9452 8.45495 18.6441 8.5266 18.3725 8.61218L18.973 5.69154H22.5846L22.4781 6.00326C21.7418 8.15782 21.8925 10.5081 22.9025 12.6212C23.3105 13.4747 23.5173 14.3905 23.5173 15.3429C23.5173 18.8523 20.6384 21.7075 17.0997 21.7075C15.4275 21.7075 13.8443 21.0732 12.6417 19.9214C11.4432 18.7732 10.7489 17.2335 10.6867 15.5856C10.6775 15.3431 10.4752 15.1554 10.231 15.1631C9.98853 15.1723 9.79937 15.3763 9.80856 15.6187C9.87939 17.4958 10.6697 19.2492 12.0339 20.5559C13.0795 21.5575 14.3783 22.2143 15.7814 22.468V27.2559C15.7814 27.3339 15.7381 27.4042 15.6685 27.4392L13.1117 28.7244C12.8313 28.865 12.686 29.1763 12.7582 29.4815C12.8304 29.7867 13.0999 30 13.4135 30H20.7856C21.0995 30 21.3692 29.7867 21.4414 29.4814C21.5136 29.1763 21.3683 28.865 21.0883 28.7245L18.5311 27.4395C18.4611 27.4042 18.4177 27.3338 18.4177 27.2559V22.4677C21.8139 21.85 24.396 18.8904 24.396 15.3429ZM7.74153 2.75526L10.491 5.4991L10.5193 5.58293L6.58569 5.14168C6.75611 4.28356 7.14188 3.46012 7.74153 2.75526ZM7.74088 9.57974C6.86548 8.55085 6.44995 7.27679 6.48669 6.0148L10.825 6.50145L7.74088 9.57974ZM11.0473 4.81286L8.36356 2.13463C9.07019 1.53603 9.89562 1.15102 10.7558 0.981135L11.1872 4.81292H11.0473V4.81286ZM12.5166 4.81286H12.0715L11.629 0.88254C12.8932 0.845809 14.1696 1.26016 15.2007 2.13346L12.5166 4.81286ZM19.9207 29.1213H14.2788L16.0631 28.2244C16.4313 28.0393 16.6601 27.6682 16.6601 27.256V22.5729C16.8059 22.5815 16.9524 22.5863 17.0996 22.5863C17.2471 22.5863 17.3934 22.5814 17.5389 22.5728V27.256C17.5389 27.6677 17.7674 28.0386 18.1359 28.2244L19.9207 29.1213Z" fill="url(#paint0_linear)"/>
</g>
<defs>
<linearGradient id="paint0_linear" x1="15" y1="0" x2="15" y2="30" gradientUnits="userSpaceOnUse">
<stop stop-color="#24FF3B"/>
<stop offset="1" stop-color="#24D8FF"/>
</linearGradient>
<clipPath id="clip0">
<rect width="30" height="30" fill="white"/>
</clipPath>
</defs>
</svg>
