<svg width="14" height="14" viewBox="0 0 14 14" fill="none" xmlns="http://www.w3.org/2000/svg">
<g clip-path="url(#clip0)">
<path d="M12.9214 8.7947C12.7289 8.7947 12.5728 8.95079 12.5728 9.14337V12.2392C12.5721 12.8167 12.1042 13.2847 11.5268 13.2852H1.74336C1.16587 13.2847 0.698026 12.8167 0.697345 12.2392V3.15315C0.698026 2.5758 1.16587 2.10782 1.74336 2.10714H4.83919C5.03178 2.10714 5.18787 1.95105 5.18787 1.75846C5.18787 1.56601 5.03178 1.40979 4.83919 1.40979H1.74336C0.780972 1.41088 0.0010896 2.19076 0 3.15315V12.2393C0.0010896 13.2017 0.780972 13.9816 1.74336 13.9827H11.5268C12.4891 13.9816 13.269 13.2017 13.2701 12.2393V9.14337C13.2701 8.95079 13.114 8.7947 12.9214 8.7947Z" fill="#333333"/>
<path d="M13.1321 0.512644C12.5193 -0.100121 11.5259 -0.100121 10.9131 0.512644L4.69256 6.73318C4.64993 6.77581 4.61915 6.82866 4.60308 6.88668L3.78506 9.83991C3.75142 9.96099 3.78561 10.0907 3.87441 10.1796C3.96335 10.2684 4.09301 10.3026 4.21409 10.2691L7.16732 9.45092C7.22534 9.43485 7.27819 9.40407 7.32082 9.36143L13.5412 3.14076C14.153 2.52759 14.153 1.53496 13.5412 0.921789L13.1321 0.512644ZM5.45229 6.95982L10.5433 1.86865L12.1852 3.51055L7.09405 8.60171L5.45229 6.95982ZM5.12432 7.61794L6.43606 8.92982L4.6216 9.43253L5.12432 7.61794ZM13.0482 2.64772L12.6784 3.0175L11.0364 1.37547L11.4063 1.00569C11.7466 0.665324 12.2985 0.665324 12.6389 1.00569L13.0482 1.41483C13.388 1.75561 13.388 2.30708 13.0482 2.64772Z" fill="#333333"/>
</g>
<defs>
<clipPath id="clip0">
<rect width="14" height="14" fill="white"/>
</clipPath>
</defs>
</svg>
