<svg width="20" height="20" viewBox="0 0 20 20" fill="none" xmlns="http://www.w3.org/2000/svg">
<g clip-path="url(#clip0)">
<path d="M11.6497 8.35014C11.5359 8.23639 11.351 8.23639 11.2373 8.35014C11.1235 8.46389 11.1235 8.64939 11.2373 8.76257C11.5674 9.09275 11.75 9.532 11.75 9.99982C11.75 10.9646 10.9648 11.7498 10 11.7498C9.53218 11.7498 9.09293 11.5678 8.76275 11.2371C8.649 11.1233 8.46408 11.1233 8.35033 11.2371C8.23658 11.3503 8.23658 11.5358 8.35033 11.6495C8.79015 12.0905 9.3764 12.3332 10 12.3332C11.2868 12.3332 12.3333 11.2867 12.3333 9.99985C12.3333 9.37622 12.0907 8.78997 11.6497 8.35014Z" fill="#FF9737"/>
<path d="M10.4067 7.70669C10.2742 7.68337 10.1389 7.66644 10.0001 7.66644C8.71325 7.66644 7.66675 8.71294 7.66675 9.99976C7.66675 10.1386 7.68367 10.2739 7.70757 10.4063C7.73265 10.5475 7.85575 10.6473 7.994 10.6473C8.01092 10.6473 8.02782 10.6461 8.04532 10.6426C8.2034 10.6146 8.30957 10.4629 8.28157 10.3048C8.2635 10.2057 8.25007 10.1048 8.25007 9.99976C8.25007 9.03494 9.03525 8.24977 10.0001 8.24977C10.1051 8.24977 10.206 8.26319 10.3052 8.28069C10.4603 8.31219 10.6149 8.20252 10.6429 8.04444C10.6709 7.88637 10.5648 7.73469 10.4067 7.70669Z" fill="#FF9737"/>
<path d="M16.9306 9.8114C16.8647 9.73322 15.2868 7.89165 13.1104 6.76408C12.9692 6.69001 12.7913 6.74601 12.7172 6.88951C12.6431 7.03243 12.6991 7.20858 12.8426 7.28268C14.5191 8.15068 15.8585 9.50518 16.3164 9.99985C15.6211 10.7529 12.8846 13.4998 10.0001 13.4998C9.02126 13.4998 8.03483 13.2636 7.06708 12.7969C6.92358 12.7263 6.74801 12.7876 6.67801 12.9328C6.60744 13.0775 6.66869 13.2519 6.81394 13.3219C7.86101 13.8277 8.93318 14.0832 10.0001 14.0832C13.594 14.0832 16.7965 10.3475 16.9313 10.1883C17.0234 10.0797 17.0228 9.92047 16.9306 9.8114Z" fill="#FF9737"/>
<path d="M11.9139 6.25244C11.2501 6.02902 10.6061 5.91644 10 5.91644C6.40611 5.91644 3.20361 9.65211 3.06886 9.81136C2.98369 9.91169 2.97669 10.0575 3.05254 10.1666C3.09279 10.2244 4.05704 11.5934 5.72828 12.7035C5.77786 12.7368 5.83328 12.7525 5.88928 12.7525C5.98321 12.7525 6.07596 12.707 6.13196 12.6213C6.22121 12.4877 6.18446 12.3063 6.05028 12.2176C4.82296 11.4015 3.98296 10.4163 3.66854 10.0155C4.33996 9.28636 7.09446 6.49979 10 6.49979C10.5431 6.49979 11.1247 6.60247 11.7278 6.80487C11.8807 6.85969 12.0463 6.77512 12.0971 6.62169C12.1484 6.46887 12.0668 6.30379 11.9139 6.25244Z" fill="#FF9737"/>
</g>
<defs>
<clipPath id="clip0">
<rect width="14" height="14" fill="white" transform="translate(3 3)"/>
</clipPath>
</defs>
</svg>
