<svg width="30" height="30" viewBox="0 0 30 30" fill="none" xmlns="http://www.w3.org/2000/svg">
<g clip-path="url(#clip0)">
<path d="M29.5371 6.05328H27.0945C27.1654 5.95372 27.2297 5.84912 27.286 5.73948C27.6092 5.10822 27.6529 4.36481 27.406 3.69968L26.6658 1.71022C26.419 1.04578 25.9006 0.511564 25.2439 0.244687C24.5866 -0.0224199 23.842 -0.00113383 23.2009 0.303281L17.3429 3.08535C17.0534 2.87844 16.6993 2.75622 16.3171 2.75622H13.6831C13.3008 2.75622 12.9465 2.87867 12.657 3.08558L6.79919 0.303052C6.15809 -0.0011338 5.41354 -0.0224199 4.75618 0.244687C4.09952 0.511564 3.5811 1.04578 3.33436 1.71L2.59416 3.6999C2.34719 4.36481 2.39091 5.10822 2.71432 5.73948C2.7704 5.84912 2.83494 5.95394 2.9059 6.05328H0.46303C0.207368 6.05328 0 6.26042 0 6.51631V9.84953C0 10.1052 0.207368 10.3126 0.46303 10.3126C0.718692 10.3126 0.92606 10.1052 0.92606 9.84953V6.97911H4.14209C4.19359 6.99719 4.24578 7.0139 4.29865 7.02855L8.18576 8.09858C7.32196 9.42221 6.56001 10.8145 5.90769 12.2572H0.92606V11.7014C0.92606 11.4458 0.718692 11.2386 0.46303 11.2386C0.207368 11.2386 0 11.4458 0 11.7014V12.7202C0 12.9758 0.207368 13.1832 0.46303 13.1832H2.11419V29.5751C2.11419 29.831 2.32156 30.0382 2.57722 30.0382H27.4229C27.6786 30.0382 27.8859 29.831 27.8859 29.5751V26.8867C27.8859 26.631 27.6786 26.4236 27.4229 26.4236C27.167 26.4236 26.9599 26.631 26.9599 26.8867V29.1123H17.7778V13.4679C19.0893 15.952 19.9771 18.6531 20.3857 21.4438C20.4127 21.6285 20.5482 21.7789 20.7292 21.8252C20.7672 21.835 20.8057 21.8396 20.8439 21.8396C20.9869 21.8396 21.1247 21.7732 21.2135 21.6553C21.8791 20.7723 22.498 19.827 23.0567 18.8401C23.9924 19.4773 24.9008 20.1877 25.7628 20.9568C25.9082 21.0863 26.1192 21.1113 26.2906 21.0188C26.4621 20.9266 26.5575 20.7368 26.5291 20.5441C26.1595 18.0225 25.4703 15.5428 24.4934 13.1832H26.9596V25.0345C26.9596 25.2904 27.167 25.4976 27.4227 25.4976C27.6786 25.4976 27.8857 25.2904 27.8857 25.0345V13.1832H29.5371C29.7928 13.1832 29.9999 12.9758 29.9999 12.7202V6.51631C30.0001 6.26042 29.793 6.05328 29.5371 6.05328ZM23.598 1.13962C24.0112 0.943695 24.4717 0.93042 24.8954 1.10254C25.3183 1.27443 25.6388 1.60471 25.7978 2.03295L26.5378 4.02217C26.6971 4.45064 26.6699 4.9107 26.4616 5.31742C26.2535 5.72392 25.8963 6.0146 25.4559 6.13568L18.0856 8.16473V5.93953C19.7423 4.92512 23.8722 2.8329 24.9002 4.28379C25.0478 4.4923 25.3366 4.54197 25.5454 4.39411C25.7541 4.24625 25.8036 3.95717 25.6557 3.74866C24.8624 2.62873 23.1906 2.57426 20.6864 3.58707C19.6549 4.00409 18.7025 4.51313 18.0856 4.86629V4.52457C18.0856 4.27669 18.0341 4.04048 17.9417 3.82602L23.598 1.13962ZM13.6831 3.68205H16.3171C16.7817 3.68205 17.1596 4.06017 17.1596 4.52457V8.35172C17.1596 8.81636 16.7817 9.19424 16.3171 9.19424H13.6831C13.2184 9.19424 12.8406 8.81636 12.8406 8.35172V4.52457C12.8406 4.05994 13.2184 3.68205 13.6831 3.68205ZM12.9049 12.2569C13.3478 11.5211 13.8298 10.8079 14.3484 10.1203H15.6512C16.1701 10.8079 16.6521 11.5211 17.0948 12.2569H12.9049ZM3.53853 5.31742C3.33024 4.9107 3.30301 4.45064 3.46208 4.0224L4.20252 2.03272C4.36136 1.60471 4.6818 1.27443 5.10477 1.10254C5.52821 0.93042 5.98895 0.943695 6.40185 1.13962L12.0585 3.82648C11.966 4.04071 11.9145 4.27669 11.9145 4.5248V4.89284C11.2997 4.53899 10.3258 4.01485 9.26792 3.58707C6.76394 2.57426 5.09196 2.62873 4.29865 3.74866C4.15079 3.95717 4.20023 4.24625 4.40897 4.39411C4.61771 4.54197 4.90656 4.49253 5.05419 4.28379C6.09172 2.81916 10.2897 4.96471 11.9145 5.96768V8.16473L4.54447 6.13591C4.10387 6.0146 3.74658 5.72392 3.53853 5.31742ZM12.1223 9.18234C12.3528 9.61355 12.7566 9.9388 13.2402 10.064C11.0747 13.0853 9.58401 16.5567 8.88477 20.2056C8.3929 19.4869 7.93308 18.7336 7.51216 17.9557C7.45059 17.8417 7.34439 17.7588 7.21873 17.727C7.09331 17.6952 6.96033 17.7174 6.85206 17.7881C6.08096 18.291 5.32587 18.8426 4.59665 19.4349C5.34762 15.4931 6.89921 11.6923 9.12418 8.35699L12.1223 9.18234ZM3.04025 13.1832H5.50669C4.52982 15.5428 3.84065 18.0223 3.47078 20.5441C3.44263 20.7368 3.53784 20.9266 3.70927 21.0188C3.88094 21.111 4.09174 21.0863 4.23708 20.9568C5.09905 20.1877 6.00749 19.4773 6.94339 18.8401C7.50209 19.827 8.12076 20.7721 8.78658 21.6553C8.87539 21.7732 9.01318 21.8398 9.15623 21.8398C9.19445 21.8398 9.2329 21.835 9.2709 21.8252C9.45194 21.7789 9.58721 21.6285 9.61422 21.4438C10.023 18.6531 10.9108 15.9518 12.2221 13.4677V29.1123H3.04025V13.1832ZM13.1482 29.1123V13.1832H16.852V29.1123H13.1482ZM23.1481 17.7881C23.0398 17.7174 22.9066 17.6954 22.7814 17.7272C22.656 17.759 22.5495 17.8419 22.488 17.9557C22.067 18.7336 21.6072 19.4871 21.1154 20.2056C20.4161 16.5565 18.9254 13.0853 16.7597 10.0642C17.2433 9.93926 17.6473 9.61378 17.8778 9.18234L20.8766 8.35676C23.1011 11.6927 24.6527 15.4936 25.4037 19.4349C24.6743 18.8426 23.9192 18.291 23.1481 17.7881ZM29.0741 12.2572H24.0927C23.4403 10.8145 22.6784 9.42221 21.8148 8.09858L25.7015 7.02855C25.7544 7.0139 25.8065 6.99719 25.858 6.97911H29.0741V12.2572Z" fill="url(#paint0_linear)"/>
</g>
<defs>
<linearGradient id="paint0_linear" x1="14.9999" y1="0.0585937" x2="14.9999" y2="30.0382" gradientUnits="userSpaceOnUse">
<stop stop-color="#24FF3B"/>
<stop offset="1" stop-color="#24D8FF"/>
</linearGradient>
<clipPath id="clip0">
<rect width="30" height="30" fill="white"/>
</clipPath>
</defs>
</svg>
