<svg width="30" height="30" viewBox="0 0 30 30" fill="none" xmlns="http://www.w3.org/2000/svg">
<path d="M12.1875 8.74875H10.3125V4.99875C10.3125 4.8444 10.3507 4.69245 10.4235 4.55638C10.4964 4.42031 10.6017 4.30434 10.7302 4.21875L14.9489 1.40625L15.9886 2.96625L12.1875 5.50031V8.74875Z" fill="#F9E109"/>
<path d="M15.9891 2.96733L12.1875 5.49858V8.74702H10.3125V4.99702C10.3125 4.84299 10.3506 4.69135 10.4234 4.5556C10.4962 4.41984 10.6014 4.30418 10.7297 4.2189L11.2031 3.90015C11.5806 4.02483 11.9824 4.05798 12.3752 3.99685C12.768 3.93573 13.1407 3.78208 13.4625 3.54858L15.4266 2.1189L15.9891 2.96733Z" fill="#FCBC04"/>
<path d="M16.4062 28.5938H6.09375L4.21875 12.1875H18.2812L16.4062 28.5938Z" fill="#F8664F"/>
<path d="M5.15625 10.3125H17.3438C17.5924 10.3125 17.8308 10.4113 18.0067 10.5871C18.1825 10.7629 18.2812 11.0014 18.2812 11.25V12.1875H4.21875V11.25C4.21875 11.0014 4.31752 10.7629 4.49334 10.5871C4.66915 10.4113 4.90761 10.3125 5.15625 10.3125Z" fill="#84D2F4"/>
<path d="M7.5 8.4375H15C15.2486 8.4375 15.4871 8.53627 15.6629 8.71209C15.8387 8.8879 15.9375 9.12636 15.9375 9.375V10.3125H6.5625V9.375C6.5625 9.12636 6.66127 8.8879 6.83709 8.71209C7.0129 8.53627 7.25136 8.4375 7.5 8.4375Z" fill="#84D2F4"/>
<path d="M18.1219 13.5938H7.5C10.2023 16.2957 13.782 17.9418 17.5922 18.2344L16.4062 28.5938H6.09375L4.21875 12.1875H18.2812L18.1219 13.5938Z" fill="#CC5144"/>
<path d="M18.2812 11.25V12.1875H4.21875V11.25C4.21949 11.0016 4.3185 10.7636 4.49416 10.5879C4.66981 10.4123 4.90784 10.3132 5.15625 10.3125C5.15699 10.5609 5.256 10.7989 5.43166 10.9746C5.60731 11.1502 5.84534 11.2493 6.09375 11.25H18.2812Z" fill="#57B7EB"/>
<path d="M15.9375 9.375V10.3125H6.5625V9.375C6.56324 9.12659 6.66225 8.88856 6.83791 8.71291C7.01356 8.53725 7.25159 8.43824 7.5 8.4375C7.50074 8.68591 7.59975 8.92394 7.77541 9.09959C7.95106 9.27525 8.18909 9.37426 8.4375 9.375H15.9375Z" fill="#57B7EB"/>
<path d="M21.0938 10.7813L20.1562 22.5L19.6875 27.6562L22.0312 28.125L23.4375 11.25L22.0312 10.5L21.0938 10.7813Z" fill="#E59730"/>
<path d="M18.2812 13.125L19.2188 24.375H22.0312L21.0938 12.6562L19.6875 11.25L18.2812 13.125Z" fill="#FCBC04"/>
<path d="M22.0312 24.3751H19.2188L18.2812 13.1251L18.8344 12.3892L19.6875 19.2188H20.1562L20.6672 16.2376L21.0938 15.9376L21.3797 16.2235L22.0312 24.3751Z" fill="#E59730"/>
<path d="M17.3438 14.5311L15.9548 14.054L15.4688 15.4686L17.8125 22.9687L20.0002 22.0312L17.3438 14.5311Z" fill="#F9E109"/>
<path d="M20.0016 22.0312L17.8125 22.9688L15.4688 15.4688L15.9469 14.0859L16.8047 16.6641C17.3051 18.1691 18.2257 19.4996 19.4578 20.4984L20.0016 22.0312Z" fill="#FCBC04"/>
<path d="M25.7812 11.25L23.8692 20.1562H25.7812L27.1875 13.5938L25.7812 11.25Z" fill="#F9E109"/>
<path d="M25.71 15.6211L26.46 12.3783L25.7812 11.25L23.8692 20.1562H25.7812L26.4201 17.1755C26.1475 17.0303 25.9302 16.7995 25.8019 16.5185C25.6735 16.2376 25.6412 15.9222 25.71 15.6211Z" fill="#FCBC04"/>
<path d="M12.6562 14.0625L15.9375 22.9688L17.8125 22.5L14.5312 14.0625H12.6562Z" fill="#F9E109"/>
<path d="M12.6562 14.0625L15.9375 22.9688L16.875 22.7344L13.5272 14.0625H12.6562Z" fill="#FCBC04"/>
<path d="M22.9688 12.6562L21.5625 23.9062L23.4375 23.4375L25.3125 13.5938L22.9688 12.6562Z" fill="#F9E109"/>
<path d="M24.2438 19.2047L23.4375 23.4375L21.5625 23.9062L22.9688 12.6562L23.8781 13.0219L23.5031 18.2859C23.4885 18.5041 23.5566 18.7198 23.6939 18.8901C23.8311 19.0603 24.0274 19.1727 24.2438 19.2047Z" fill="#FCBC04"/>
<path d="M22.5 24.375H20.625L21.0938 15.9375L22.9688 16.4062L22.5 24.375Z" fill="#F9E109"/>
<path d="M21.9056 19.9533L22.0116 16.1672L21.0937 15.9375L20.625 24.375H22.5L22.6842 21.2466C22.4449 21.1273 22.2446 20.9423 22.1067 20.7133C21.9688 20.4842 21.899 20.2206 21.9056 19.9533Z" fill="#FCBC04"/>
<path d="M24.8438 18.2812C24.8438 20.0934 22.9552 21.5625 20.625 21.5625C18.2948 21.5625 16.4062 20.0934 16.4062 18.2812H14.0625L15.4688 28.5938H25.7812L27.1875 18.2812H24.8438Z" fill="#84D2F4"/>
<path d="M26.0391 26.7188L25.7812 28.5938H15.4688L14.0625 18.2812H16.4062C16.4144 18.6779 16.5049 19.0686 16.6719 19.4284C16.8389 19.7883 17.0789 20.1096 17.3766 20.3719C17.6509 22.1403 18.5488 23.7522 19.908 24.9162C21.2672 26.0803 22.998 26.7196 24.7875 26.7188H26.0391Z" fill="#57B7EB"/>
<path d="M20.625 26.7188C21.4017 26.7188 22.0312 26.0892 22.0312 25.3125C22.0312 24.5358 21.4017 23.9062 20.625 23.9062C19.8483 23.9062 19.2188 24.5358 19.2188 25.3125C19.2188 26.0892 19.8483 26.7188 20.625 26.7188Z" fill="#F9E109"/>
<path d="M21.7922 26.0951C21.6242 26.3451 21.3803 26.5346 21.0965 26.6356C20.8127 26.7366 20.504 26.7438 20.2158 26.6561C19.9276 26.5685 19.6751 26.3906 19.4956 26.1486C19.3161 25.9067 19.2191 25.6135 19.2188 25.3123C19.2178 25.0253 19.3063 24.7451 19.4719 24.5107C20.1383 25.1807 20.9256 25.7184 21.7922 26.0951Z" fill="#FCBC04"/>
<path d="M14.0625 23.9062H5.625C5.12772 23.9062 4.65081 23.7087 4.29917 23.3571C3.94754 23.0054 3.75 22.5285 3.75 22.0312C3.75 21.534 3.94754 21.0571 4.29917 20.7054C4.65081 20.3538 5.12772 20.1562 5.625 20.1562H14.0625C14.5598 20.1562 15.0367 20.3538 15.3883 20.7054C15.74 21.0571 15.9375 21.534 15.9375 22.0312C15.9375 22.5285 15.74 23.0054 15.3883 23.3571C15.0367 23.7087 14.5598 23.9062 14.0625 23.9062Z" fill="#F89C8D"/>
<path d="M15 22.9688C15.2654 22.9685 15.5277 22.911 15.7688 22.8C15.6782 23.0081 15.5495 23.1973 15.3891 23.3578C15.0364 23.7083 14.5597 23.9054 14.0625 23.9063H5.62501C5.25396 23.9065 4.89116 23.7967 4.58255 23.5907C4.27393 23.3847 4.03338 23.0918 3.89134 22.749C3.74931 22.4062 3.71217 22.029 3.78464 21.6651C3.85711 21.3011 4.03593 20.9669 4.29845 20.7047C4.45897 20.5443 4.64819 20.4155 4.85626 20.325C5.09737 20.214 5.3596 20.1565 5.62501 20.1562H14.0625C14.5183 20.1569 14.9582 20.3235 15.3 20.625C15.5334 20.8266 15.711 21.0849 15.8156 21.375C15.7298 21.5298 15.6042 21.6588 15.4517 21.7486C15.2992 21.8385 15.1254 21.8859 14.9485 21.8859C14.7941 21.8859 14.6418 21.8506 14.5031 21.7828C14.3666 21.7135 14.2156 21.6773 14.0625 21.6773C13.9094 21.6773 13.7584 21.7135 13.6219 21.7828L12.6281 22.2797C12.4916 22.349 12.3406 22.3852 12.1875 22.3852C12.0344 22.3852 11.8834 22.349 11.7469 22.2797L10.7531 21.7828C10.6166 21.7135 10.4656 21.6773 10.3125 21.6773C10.1594 21.6773 10.0084 21.7135 9.87189 21.7828L8.87814 22.2797C8.74161 22.349 8.59064 22.3852 8.43751 22.3852C8.28438 22.3852 8.13342 22.349 7.99689 22.2797L7.00314 21.7828C6.86661 21.7135 6.71564 21.6773 6.56251 21.6773C6.40938 21.6773 6.25842 21.7135 6.12189 21.7828L5.3672 22.1625C5.28007 22.2043 5.189 22.2373 5.09532 22.2609C5.27053 22.4821 5.49356 22.6607 5.74767 22.7833C6.00179 22.9058 6.28037 22.9693 6.56251 22.9688H15Z" fill="#F8664F"/>
<path d="M2.8125 25.7812H16.875V26.7188C16.875 27.216 16.6775 27.6929 16.3258 28.0446C15.9742 28.3962 15.4973 28.5938 15 28.5938H4.6875C4.19022 28.5938 3.71331 28.3962 3.36167 28.0446C3.01004 27.6929 2.8125 27.216 2.8125 26.7188V25.7812Z" fill="#FCBC04"/>
<path d="M11.1562 25.7812L10.7812 26.25L10.4062 25.7812H11.1562Z" fill="#E59730"/>
<path d="M11.1562 25.7812L10.7812 26.25L10.4062 25.7812H11.1562Z" fill="#E59730"/>
<path d="M15 25.7812H4.6875C4.43886 25.7812 4.2004 25.6825 4.02459 25.5067C3.84877 25.3308 3.75 25.0924 3.75 24.8438C3.75 24.5951 3.84877 24.3567 4.02459 24.1808C4.2004 24.005 4.43886 23.9062 4.6875 23.9062H15C15.2486 23.9062 15.4871 24.005 15.6629 24.1808C15.8387 24.3567 15.9375 24.5951 15.9375 24.8438C15.9375 25.0924 15.8387 25.3308 15.6629 25.5067C15.4871 25.6825 15.2486 25.7812 15 25.7812Z" fill="#CC5144"/>
<path d="M11.25 26.25L9.375 23.9062H13.125L11.25 26.25Z" fill="#F7F754"/>
<path d="M11.0892 24.4087L10.6875 23.9062H9.375L11.25 26.25L12.3117 24.923C12.0813 24.9455 11.8488 24.9103 11.6354 24.8205C11.422 24.7308 11.2343 24.5892 11.0892 24.4087Z" fill="#F9E109"/>
<path d="M3.28125 20.1562C3.28118 20.438 3.35961 20.7141 3.50774 20.9537C3.65586 21.1933 3.86782 21.3869 4.11984 21.5128L4.47797 21.6919C4.68853 21.7973 4.92077 21.8522 5.15625 21.8522C5.39173 21.8522 5.62397 21.7973 5.83453 21.6919L6.58875 21.3169C6.72616 21.2482 6.87765 21.2125 7.03125 21.2125C7.18486 21.2125 7.33635 21.2482 7.47375 21.3169L8.46376 21.8119C8.60116 21.8805 8.75265 21.9163 8.90626 21.9163C9.05986 21.9163 9.21135 21.8805 9.34876 21.8119L10.3388 21.3169C10.4762 21.2482 10.6277 21.2125 10.7813 21.2125C10.9349 21.2125 11.0864 21.2482 11.2238 21.3169L12.2138 21.8119C12.3512 21.8805 12.5027 21.9163 12.6563 21.9163C12.8099 21.9163 12.9614 21.8805 13.0988 21.8119L14.0888 21.3169C14.2262 21.2482 14.3777 21.2125 14.5313 21.2125C14.6849 21.2125 14.8364 21.2482 14.9738 21.3169C15.1248 21.3923 15.2926 21.4279 15.4613 21.4202C15.6299 21.4126 15.7938 21.3619 15.9374 21.273C16.0809 21.1841 16.1994 21.06 16.2814 20.9125C16.3635 20.7649 16.4065 20.5988 16.4063 20.43V20.1562H3.28125Z" fill="#C4F236"/>
<path d="M12.1875 15.4688H7.5C6.2568 15.4688 5.06451 15.9626 4.18544 16.8417C3.30636 17.7208 2.8125 18.913 2.8125 20.1562H16.875C16.875 18.913 16.3811 17.7208 15.5021 16.8417C14.623 15.9626 13.4307 15.4688 12.1875 15.4688Z" fill="#FCBC04"/>
<path d="M16.875 20.1564H2.8125C2.81293 19.1325 3.1486 18.1369 3.76821 17.3217C4.38783 16.5066 5.2573 15.9167 6.24375 15.6423C6.48736 16.5348 7.01759 17.3225 7.75278 17.884C8.48797 18.4456 9.38737 18.7499 10.3125 18.7501H16.6594C16.803 19.205 16.8758 19.6794 16.875 20.1564Z" fill="#E59730"/>
<path d="M16.875 26.7188C16.875 27.216 16.6775 27.6929 16.3258 28.0446C15.9742 28.3962 15.4973 28.5938 15 28.5938H4.6875C4.19022 28.5938 3.71331 28.3962 3.36167 28.0446C3.01004 27.6929 2.8125 27.216 2.8125 26.7188V25.7812H3.81094C3.91421 26.1838 4.14857 26.5405 4.47704 26.7952C4.80551 27.0498 5.2094 27.1878 5.625 27.1875H15.4688C15.9762 27.1895 16.4703 27.0248 16.875 26.7188Z" fill="#E59730"/>
<path d="M16.4062 20.1562V20.4281C16.4083 20.4946 16.4004 20.5609 16.3828 20.625H4.07813C4.2137 20.8019 4.38864 20.9447 4.58907 21.0422L4.94532 21.225C5.15679 21.3291 5.38932 21.3832 5.62501 21.3832C5.86069 21.3832 6.09323 21.3291 6.30469 21.225L7.05938 20.8453C7.19591 20.776 7.34688 20.7398 7.5 20.7398C7.65313 20.7398 7.8041 20.776 7.94063 20.8453L8.93438 21.3422C9.07091 21.4115 9.22187 21.4477 9.375 21.4477C9.52813 21.4477 9.6791 21.4115 9.81563 21.3422L10.8094 20.8453C10.9459 20.776 11.0969 20.7398 11.25 20.7398C11.4031 20.7398 11.5541 20.776 11.6906 20.8453L12.6844 21.3422C12.8209 21.4115 12.9719 21.4477 13.125 21.4477C13.2781 21.4477 13.4291 21.4115 13.5656 21.3422L14.5594 20.8453C14.6959 20.776 14.8469 20.7398 15 20.7398C15.1531 20.7398 15.3041 20.776 15.4406 20.8453C15.5758 20.913 15.7248 20.9486 15.876 20.9495C16.0272 20.9503 16.1766 20.9162 16.3125 20.85C16.232 21.0194 16.1053 21.1626 15.9468 21.263C15.7884 21.3634 15.6047 21.4168 15.4172 21.4172C15.2628 21.4172 15.1105 21.3819 14.9719 21.3141C14.8353 21.2447 14.6844 21.2086 14.5312 21.2086C14.3781 21.2086 14.2272 21.2447 14.0906 21.3141L13.0969 21.8109C12.9603 21.8803 12.8094 21.9164 12.6562 21.9164C12.5031 21.9164 12.3522 21.8803 12.2156 21.8109L11.2219 21.3141C11.0853 21.2447 10.9344 21.2086 10.7813 21.2086C10.6281 21.2086 10.4772 21.2447 10.3406 21.3141L9.34688 21.8109C9.21035 21.8803 9.05938 21.9164 8.90625 21.9164C8.75313 21.9164 8.60216 21.8803 8.46563 21.8109L7.47188 21.3141C7.33535 21.2447 7.18438 21.2086 7.03125 21.2086C6.87813 21.2086 6.72716 21.2447 6.59063 21.3141L5.83594 21.6937C5.62448 21.7978 5.39194 21.8519 5.15626 21.8519C4.92057 21.8519 4.68804 21.7978 4.47657 21.6937L4.12032 21.5109C3.86767 21.3863 3.65508 21.1933 3.50674 20.9538C3.35841 20.7143 3.28028 20.438 3.28126 20.1562H16.4062Z" fill="#A1D51C"/>
<path d="M10.7812 17.8125C11.0401 17.8125 11.25 17.6026 11.25 17.3438C11.25 17.0849 11.0401 16.875 10.7812 16.875C10.5224 16.875 10.3125 17.0849 10.3125 17.3438C10.3125 17.6026 10.5224 17.8125 10.7812 17.8125Z" fill="#F9E109"/>
<path d="M8.90625 17.3438C9.16513 17.3438 9.375 17.1339 9.375 16.875C9.375 16.6161 9.16513 16.4062 8.90625 16.4062C8.64737 16.4062 8.4375 16.6161 8.4375 16.875C8.4375 17.1339 8.64737 17.3438 8.90625 17.3438Z" fill="#F9E109"/>
<path d="M7.5 18.2812C7.75888 18.2812 7.96875 18.0714 7.96875 17.8125C7.96875 17.5536 7.75888 17.3438 7.5 17.3438C7.24112 17.3438 7.03125 17.5536 7.03125 17.8125C7.03125 18.0714 7.24112 18.2812 7.5 18.2812Z" fill="#F9E109"/>
<path d="M14.5312 18.2812C14.7901 18.2812 15 18.0714 15 17.8125C15 17.5536 14.7901 17.3438 14.5312 17.3438C14.2724 17.3438 14.0625 17.5536 14.0625 17.8125C14.0625 18.0714 14.2724 18.2812 14.5312 18.2812Z" fill="#F9E109"/>
<path d="M5.625 17.8125C5.88388 17.8125 6.09375 17.6026 6.09375 17.3438C6.09375 17.0849 5.88388 16.875 5.625 16.875C5.36612 16.875 5.15625 17.0849 5.15625 17.3438C5.15625 17.6026 5.36612 17.8125 5.625 17.8125Z" fill="#FCBC04"/>
<path d="M12.6562 17.3438C12.9151 17.3438 13.125 17.1339 13.125 16.875C13.125 16.6161 12.9151 16.4062 12.6562 16.4062C12.3974 16.4062 12.1875 16.6161 12.1875 16.875C12.1875 17.1339 12.3974 17.3438 12.6562 17.3438Z" fill="#F9E109"/>
<path d="M7.92656 18.0095C7.88209 18.1071 7.80549 18.1866 7.70954 18.2345C7.61359 18.2825 7.50409 18.296 7.39933 18.273C7.29456 18.25 7.20087 18.1917 7.13389 18.1079C7.0669 18.0241 7.03068 17.9199 7.03126 17.8127C7.03202 17.736 7.05114 17.6607 7.08703 17.593C7.12292 17.5253 7.17452 17.4672 7.23751 17.4236H7.24219C7.44796 17.6436 7.67748 17.8401 7.92656 18.0095Z" fill="#FCBC04"/>
</svg>
