<svg width="20" height="20" viewBox="0 0 20 20" fill="none" xmlns="http://www.w3.org/2000/svg">
<path d="M8.02971 19.4595H7.23512C7.16343 19.4595 7.09469 19.431 7.044 19.3803C6.99332 19.3296 6.96484 19.2609 6.96484 19.1892C6.96484 19.1175 6.99332 19.0488 7.044 18.9981C7.09469 18.9474 7.16343 18.9189 7.23512 18.9189H8.02971C8.10139 18.9189 8.17014 18.9474 8.22083 18.9981C8.27151 19.0488 8.29999 19.1175 8.29999 19.1892C8.29999 19.2609 8.27151 19.3296 8.22083 19.3803C8.17014 19.431 8.10139 19.4595 8.02971 19.4595Z" fill="#FF9737"/>
<path d="M16.2162 19.4595H12.6081C12.5365 19.4595 12.4677 19.431 12.417 19.3803C12.3663 19.3296 12.3379 19.2609 12.3379 19.1892C12.3379 19.1175 12.3663 19.0488 12.417 18.9981C12.4677 18.9474 12.5365 18.9189 12.6081 18.9189H16.2162C16.3624 18.9188 16.5026 18.8607 16.606 18.7573C16.7093 18.6539 16.7675 18.5138 16.7676 18.3676V10.1433C16.7678 9.99673 16.7099 9.85609 16.6065 9.75221C16.5031 9.64834 16.3628 9.58972 16.2162 9.58922H3.89733C3.75043 9.58936 3.60959 9.64778 3.50571 9.75165C3.40184 9.85553 3.34342 9.99637 3.34327 10.1433V18.3676C3.34378 18.5141 3.4024 18.6545 3.50627 18.7579C3.61014 18.8612 3.75079 18.9192 3.89733 18.9189H5.34328C5.41496 18.9189 5.4837 18.9474 5.53438 18.9981C5.58507 19.0488 5.61355 19.1175 5.61355 19.1892C5.61355 19.2609 5.58507 19.3296 5.53438 19.3803C5.4837 19.431 5.41496 19.4595 5.34328 19.4595H3.89733C3.60747 19.4596 3.32942 19.3446 3.12421 19.1399C2.91899 18.9352 2.80338 18.6575 2.80273 18.3676V10.1433C2.80309 9.85308 2.91853 9.57487 3.12373 9.36967C3.32893 9.16447 3.60713 9.04903 3.89733 9.04868H16.2162C16.5061 9.04932 16.7839 9.16494 16.9886 9.37015C17.1933 9.57536 17.3082 9.85341 17.3081 10.1433V18.3676C17.3079 18.6571 17.1927 18.9347 16.988 19.1394C16.7833 19.3441 16.5057 19.4592 16.2162 19.4595Z" fill="#FF9737"/>
<path d="M10.7135 19.4595H9.92164C9.84996 19.4595 9.78121 19.431 9.73053 19.3803C9.67984 19.3296 9.65137 19.2609 9.65137 19.1892C9.65137 19.1175 9.67984 19.0488 9.73053 18.9981C9.78121 18.9474 9.84996 18.9189 9.92164 18.9189H10.7135C10.7852 18.9189 10.854 18.9474 10.9046 18.9981C10.9553 19.0488 10.9838 19.1175 10.9838 19.1892C10.9838 19.2609 10.9553 19.3296 10.9046 19.3803C10.854 19.431 10.7852 19.4595 10.7135 19.4595Z" fill="#FF9737"/>
<path d="M14.7297 9.58918H5.38245C5.31077 9.58918 5.24203 9.5607 5.19134 9.51002C5.14066 9.45933 5.11218 9.39059 5.11218 9.31891V5.48458C5.11218 4.17334 5.63307 2.9158 6.56026 1.98861C7.48745 1.06142 8.74499 0.540527 10.0562 0.540527C11.3675 0.540527 12.625 1.06142 13.5522 1.98861C14.4794 2.9158 15.0003 4.17334 15.0003 5.48458V9.31891C15.0003 9.35442 14.9933 9.38959 14.9797 9.4224C14.9661 9.4552 14.9462 9.48501 14.921 9.51011C14.8959 9.53521 14.8661 9.55511 14.8333 9.56868C14.8004 9.58225 14.7653 9.58921 14.7297 9.58918ZM5.65245 9.04864H14.4595V5.48458C14.4595 4.3167 13.9955 3.19665 13.1697 2.37083C12.3439 1.54501 11.2239 1.08107 10.056 1.08107C8.88808 1.08107 7.76803 1.54501 6.94221 2.37083C6.11639 3.19665 5.65245 4.3167 5.65245 5.48458V9.04864Z" fill="#FF9737"/>
<path d="M10.7027 16.7297H9.41079C9.28738 16.7295 9.1691 16.6803 9.08194 16.593C8.99477 16.5056 8.94585 16.3872 8.94593 16.2638V15.0843C8.63845 14.8517 8.41182 14.5283 8.29803 14.1599C8.18424 13.7915 8.18904 13.3967 8.31174 13.0312C8.43445 12.6656 8.66886 12.3479 8.98189 12.1228C9.29492 11.8977 9.67076 11.7766 10.0563 11.7766C10.4419 11.7766 10.8177 11.8977 11.1308 12.1228C11.4438 12.3479 11.6782 12.6656 11.8009 13.0312C11.9236 13.3967 11.9284 13.7915 11.8146 14.1599C11.7008 14.5283 11.4742 14.8517 11.1667 15.0843V16.2638C11.1669 16.3871 11.1181 16.5054 11.0311 16.5928C10.9441 16.6801 10.826 16.7294 10.7027 16.7297ZM9.48646 16.1892H10.6262V14.9432C10.6262 14.8977 10.6377 14.853 10.6596 14.8131C10.6815 14.7732 10.7132 14.7395 10.7516 14.7151C10.9895 14.5645 11.1721 14.3407 11.2719 14.0774C11.3716 13.8141 11.3832 13.5255 11.3048 13.255C11.2264 12.9846 11.0623 12.7469 10.8371 12.5778C10.612 12.4086 10.338 12.3172 10.0565 12.3172C9.77488 12.3172 9.50091 12.4086 9.27578 12.5778C9.05064 12.7469 8.88653 12.9846 8.80813 13.255C8.72973 13.5255 8.74128 13.8141 8.84105 14.0774C8.94082 14.3407 9.1234 14.5645 9.36133 14.7151C9.3997 14.7396 9.43128 14.7733 9.45315 14.8131C9.47503 14.853 9.48648 14.8978 9.48646 14.9432V16.1892Z" fill="#FF9737"/>
</svg>
