<svg width="20" height="20" viewBox="0 0 20 20" fill="none" xmlns="http://www.w3.org/2000/svg">
<path d="M13.75 0.3125H6.25C5.83574 0.312965 5.43858 0.477735 5.14566 0.77066C4.85273 1.06358 4.68797 1.46074 4.6875 1.875V18.125C4.68797 18.5393 4.85273 18.9364 5.14566 19.2293C5.43858 19.5223 5.83574 19.687 6.25 19.6875H13.75C14.1643 19.687 14.5614 19.5223 14.8543 19.2293C15.1473 18.9364 15.312 18.5393 15.3125 18.125V1.875C15.312 1.46074 15.1473 1.06358 14.8543 0.77066C14.5614 0.477735 14.1643 0.312965 13.75 0.3125ZM12.1188 0.9375L11.9313 1.875H8.06871L7.88121 0.9375H12.1188ZM14.6875 18.125C14.6872 18.3736 14.5884 18.6118 14.4126 18.7876C14.2368 18.9634 13.9986 19.0622 13.75 19.0625H6.25C6.00145 19.0622 5.76315 18.9634 5.5874 18.7876C5.41164 18.6118 5.31278 18.3736 5.3125 18.125V1.875C5.31278 1.62645 5.41164 1.38815 5.5874 1.2124C5.76315 1.03664 6.00145 0.937779 6.25 0.9375H7.24379L7.50605 2.24879C7.52022 2.31963 7.5585 2.38337 7.61437 2.42917C7.67024 2.47498 7.74026 2.5 7.8125 2.5H12.1875C12.2597 2.5 12.3298 2.47498 12.3856 2.42917C12.4415 2.38337 12.4798 2.31963 12.4939 2.24879L12.7562 0.9375H13.75C13.9986 0.937779 14.2368 1.03664 14.4126 1.2124C14.5884 1.38815 14.6872 1.62645 14.6875 1.875V18.125Z" fill="#FF9737"/>
<path d="M8.125 17.8125H6.25C6.16712 17.8125 6.08763 17.8454 6.02903 17.904C5.97042 17.9626 5.9375 18.0421 5.9375 18.125C5.9375 18.2079 5.97042 18.2874 6.02903 18.346C6.08763 18.4046 6.16712 18.4375 6.25 18.4375H8.125C8.20788 18.4375 8.28737 18.4046 8.34597 18.346C8.40458 18.2874 8.4375 18.2079 8.4375 18.125C8.4375 18.0421 8.40458 17.9626 8.34597 17.904C8.28737 17.8454 8.20788 17.8125 8.125 17.8125Z" fill="#FF9737"/>
<path d="M9.375 17.8125H9.0625C8.97962 17.8125 8.90013 17.8454 8.84153 17.904C8.78292 17.9626 8.75 18.0421 8.75 18.125C8.75 18.2079 8.78292 18.2874 8.84153 18.346C8.90013 18.4046 8.97962 18.4375 9.0625 18.4375H9.375C9.45788 18.4375 9.53737 18.4046 9.59597 18.346C9.65458 18.2874 9.6875 18.2079 9.6875 18.125C9.6875 18.0421 9.65458 17.9626 9.59597 17.904C9.53737 17.8454 9.45788 17.8125 9.375 17.8125Z" fill="#FF9737"/>
</svg>
