<svg width="30" height="30" viewBox="0 0 30 30" fill="none" xmlns="http://www.w3.org/2000/svg">
<g clip-path="url(#clip0)">
<path d="M28.9733 14.6997H28.5128C28.4681 14.4296 28.445 14.1749 28.4963 13.9861C28.5864 13.6544 28.8827 13.3028 29.1692 12.9628C29.5751 12.4811 29.9948 11.9831 29.9999 11.3756C30.0063 10.611 29.4785 10.0421 29.0126 9.54009C28.7598 9.26757 28.5209 9.01017 28.4284 8.7847C28.3175 8.51429 28.2629 8.14902 28.21 7.79582C28.0999 7.05942 27.9751 6.22481 27.2724 5.86446C26.5688 5.50429 25.8184 5.89048 25.156 6.23137C24.8386 6.39473 24.5104 6.5636 24.2266 6.63151C24.0148 6.68202 23.6997 6.65038 23.4209 6.61668C23.1802 6.58756 22.961 6.7593 22.9319 7.00024C22.9028 7.24117 23.0745 7.46014 23.3155 7.4892C23.6861 7.53402 24.0777 7.57059 24.4308 7.48633C24.8181 7.39369 25.1943 7.2001 25.5581 7.01284C26.0785 6.74506 26.5699 6.49211 26.8715 6.64663C27.1726 6.80102 27.2543 7.34735 27.3408 7.92584C27.4013 8.33078 27.464 8.74949 27.6152 9.11839C27.7683 9.49128 28.0733 9.81999 28.3684 10.1379C28.7401 10.5386 29.1245 10.9529 29.121 11.3683C29.1186 11.6591 28.8026 12.0339 28.4972 12.3965C28.1491 12.8096 27.7892 13.2366 27.6482 13.7558C27.5667 14.0557 27.5801 14.3813 27.6242 14.6997H24.6731C24.6662 14.3138 24.5002 13.9675 24.2744 13.6406C24.5695 12.8228 24.8316 11.9812 25.0538 11.1349C25.1154 10.9002 24.975 10.6599 24.7403 10.5983C24.5054 10.5367 24.2653 10.6771 24.2037 10.9118C24.0342 11.5576 23.8406 12.2005 23.6265 12.8316C23.3696 12.5209 23.1327 12.205 23.05 11.9008C22.9683 11.6 23.0529 11.1675 23.1425 10.7096C23.2707 10.0534 23.4161 9.30976 23.0926 8.67841C22.769 8.04689 22.08 7.73061 21.4721 7.45152C21.0483 7.25694 20.648 7.07313 20.4518 6.8319C20.2129 6.53735 20.0905 6.05173 19.9721 5.58204C19.8074 4.92796 19.6369 4.25162 19.1174 3.87076C18.4618 3.39076 17.6367 3.49406 16.9087 3.58511C16.5068 3.63545 16.1272 3.68302 15.8648 3.62033C15.5532 3.54597 15.1962 3.36234 14.8509 3.18469C14.1429 2.82047 13.3407 2.40762 12.597 2.78889C11.8911 3.15064 11.7352 3.97359 11.6204 4.72986C11.2678 4.56515 10.9514 4.40109 10.7838 4.19513C10.545 3.90058 10.4226 3.41496 10.3042 2.94527C10.1394 2.29119 9.96898 1.61485 9.44944 1.23399C8.79389 0.753992 7.96872 0.857293 7.24081 0.948347C6.83898 0.998679 6.45935 1.04614 6.19691 0.983562C5.88525 0.909207 5.52824 0.725575 5.18295 0.547919C4.47502 0.183819 3.6727 -0.228914 2.92927 0.15212C2.18566 0.532919 2.05212 1.4253 1.93441 2.21268C1.87699 2.59676 1.81751 2.99385 1.69581 3.29045C1.59351 3.54006 1.33324 3.82054 1.05761 4.11755C0.558749 4.65521 -0.00667861 5.26464 5.96471e-05 6.07704C0.00550884 6.72116 0.455156 7.25465 0.889978 7.77057C1.20211 8.14094 1.5249 8.5239 1.62433 8.88953C1.70578 9.18988 1.62117 9.62224 1.53164 10.0799C1.4032 10.7363 1.25759 11.4804 1.58121 12.1114C1.9047 12.7428 2.59347 13.059 3.2012 13.3381C3.62518 13.5328 4.02573 13.7168 4.22225 13.9589C4.37424 14.1459 4.47895 14.4108 4.56555 14.6997H1.02668C0.447069 14.6964 -0.0311707 15.2026 0.00181745 15.7806C0.094278 17.4007 0.528808 18.9449 1.29328 20.3703C1.408 20.5842 1.67443 20.6647 1.88824 20.5498C2.1021 20.4351 2.18249 20.1687 2.06777 19.9549C1.36429 18.6431 0.964392 17.2218 0.879197 15.7304C0.874099 15.6411 0.9307 15.5816 1.02668 15.5785H28.9733C29.0702 15.582 29.1258 15.6408 29.1207 15.7304C28.9781 18.2285 27.9229 20.5811 26.1492 22.355C24.1815 24.3228 21.674 25.3364 18.9337 25.3437H11.0662C7.97557 25.343 5.12717 24.005 3.15274 21.5818C2.99946 21.3936 2.72267 21.3653 2.53446 21.5188C2.34632 21.6721 2.31814 21.9489 2.47148 22.1371C3.84819 23.8261 5.65521 25.046 7.67106 25.6928V26.9473C7.67106 28.6306 9.04051 30 10.7238 30H19.2762C20.9594 30 22.3289 28.6306 22.3289 26.9473V25.6946C23.9858 25.1636 25.5044 24.2423 26.7707 22.9764C28.6971 21.0498 29.8433 18.4943 29.9982 15.7806C30.0312 15.2025 29.5498 14.6967 28.9733 14.6997ZM10.2726 14.6997C9.17563 13.0399 8.24001 11.2765 7.49107 9.45408C6.97673 8.20345 6.54085 6.90162 6.1955 5.58456C6.13386 5.34978 5.89369 5.20944 5.65896 5.27091C5.42418 5.33249 5.28379 5.57266 5.34531 5.80745C5.70056 7.16225 6.14904 8.50158 6.67814 9.78823C7.37616 11.4866 8.23128 13.1353 9.22485 14.6997H5.47861C5.35492 14.2333 5.20322 13.7723 4.90451 13.4047C4.57891 13.0036 4.06504 12.7676 3.56799 12.5394C3.06655 12.3091 2.54812 12.071 2.36331 11.7105C2.17863 11.3503 2.2882 10.7902 2.39413 10.2487C2.49907 9.71224 2.60765 9.15759 2.47247 8.65914C2.322 8.10596 1.93564 7.64752 1.56193 7.20414C1.22748 6.80729 0.881658 6.3969 0.878904 6.06965C0.875037 5.60647 1.29533 5.15343 1.70185 4.71532C2.01855 4.37396 2.34609 4.02093 2.50886 3.62402C2.67093 3.2291 2.73831 2.77852 2.80353 2.3427C2.89839 1.70848 2.98798 1.10948 3.32993 0.934343C3.67206 0.759031 4.21041 1.03618 4.78076 1.32956C5.17258 1.53112 5.57775 1.73954 5.99283 1.83856C6.40996 1.93817 6.88785 1.87834 7.34991 1.82057C7.943 1.74633 8.55641 1.66957 8.93001 1.94309C9.19403 2.13662 9.3251 2.65693 9.4519 3.16008C9.59352 3.72228 9.74 4.30365 10.1015 4.74931C10.4272 5.14985 10.9408 5.38563 11.4375 5.61362C11.9391 5.84389 12.4577 6.08202 12.6424 6.44254C12.8271 6.80301 12.7177 7.36287 12.6118 7.90422C12.5069 8.44094 12.3984 8.99587 12.5337 9.49398C12.5938 9.71611 12.6938 9.92241 12.8063 10.1081C11.6234 10.7396 10.8164 11.9862 10.8164 13.4181C10.8164 13.8577 10.8936 14.2912 11.0421 14.6997H10.2726V14.6997ZM17.1355 14.6997H11.9973C11.7993 14.3034 11.6953 13.865 11.6953 13.418C11.6953 11.8349 12.9832 10.547 14.5663 10.547C16.1495 10.547 17.4374 11.8349 17.4374 13.418C17.4375 13.8651 17.3334 14.3035 17.1355 14.6997ZM20.2058 14.6997H18.0906C18.2391 14.2911 18.3163 13.8577 18.3163 13.418C18.3163 12.3004 17.8243 11.296 17.046 10.6084C17.2382 10.5683 17.4352 10.547 17.6367 10.547C19.2198 10.547 20.5077 11.8349 20.5077 13.418C20.5078 13.8651 20.4037 14.3035 20.2058 14.6997ZM21.1609 14.6997C21.3094 14.2911 21.3867 13.8577 21.3867 13.418C21.3867 11.3503 19.7045 9.66806 17.6367 9.66806C17.1065 9.66806 16.5794 9.78126 16.0992 9.99694C15.6309 9.7863 15.1123 9.66806 14.5664 9.66806C14.2478 9.66806 13.9383 9.70831 13.6427 9.78343C13.5323 9.6223 13.4306 9.44318 13.3821 9.26394C13.3004 8.96318 13.385 8.53064 13.4745 8.07273C13.6028 7.4166 13.7482 6.67293 13.4247 6.04159C13.2135 5.62956 12.8467 5.35212 12.4485 5.13128C12.5437 4.50609 12.6293 3.75984 12.998 3.57099C13.3401 3.39574 13.8785 3.67283 14.4488 3.96621C14.8406 4.16777 15.2458 4.37619 15.6609 4.47521C16.0781 4.57482 16.5558 4.51499 17.018 4.45722C17.611 4.38298 18.2245 4.30628 18.5981 4.57974C18.8621 4.77333 18.9931 5.29358 19.1199 5.79673C19.2616 6.35893 19.4081 6.9403 19.7696 7.38596C20.0952 7.7865 20.6088 8.02228 21.1055 8.25027C21.6071 8.48054 22.1257 8.71867 22.3105 9.07919C22.4952 9.43966 22.3857 9.99952 22.2799 10.5409C22.175 11.0776 22.0664 11.6325 22.2019 12.131C22.3521 12.6846 22.7386 13.1432 23.1124 13.5867C23.4398 13.9751 23.7771 14.3763 23.7935 14.6997H21.1609ZM21.45 26.9473C21.45 28.1459 20.4748 29.1211 19.2762 29.1211H10.7238C9.5252 29.1211 8.55003 28.1459 8.55003 26.9473V25.9351C9.36582 26.1242 10.2089 26.2226 11.0662 26.2226H18.9337C19.7915 26.2226 20.6343 26.1252 21.4499 25.9367V26.9473H21.45Z" fill="url(#paint0_linear)"/>
</g>
<defs>
<linearGradient id="paint0_linear" x1="15" y1="0.000244141" x2="15" y2="30" gradientUnits="userSpaceOnUse">
<stop stop-color="#24FF3B"/>
<stop offset="1" stop-color="#24D8FF"/>
</linearGradient>
<clipPath id="clip0">
<rect width="30" height="30" fill="white"/>
</clipPath>
</defs>
</svg>
